<mxfile host="app.diagrams.net" agent="Mozilla/5.0 (Windows NT 10.0; Win64; x64) AppleWebKit/537.36 (KHTML, like Gecko) Chrome/121.0.0.0 Safari/537.36 Edg/121.0.0.0" version="28.2.7" pages="3">
  <diagram id="03AFxIoGQI3iQ96NWzkm" name="SDDC">
    <mxGraphModel dx="1761" dy="1002" grid="1" gridSize="10" guides="1" tooltips="1" connect="1" arrows="1" fold="1" page="1" pageScale="1" pageWidth="827" pageHeight="1169" math="0" shadow="0">
      <root>
        <mxCell id="0" />
        <mxCell id="1" parent="0" />
        <mxCell id="Zzp6PQG__1YS2u12ETKb-1" value="Automation" style="rounded=0;whiteSpace=wrap;html=1;" vertex="1" parent="1">
          <mxGeometry x="50" y="50" width="120" height="20" as="geometry" />
        </mxCell>
        <mxCell id="Zzp6PQG__1YS2u12ETKb-2" value="Management" style="rounded=0;whiteSpace=wrap;html=1;" vertex="1" parent="1">
          <mxGeometry x="50" y="80" width="120" height="20" as="geometry" />
        </mxCell>
        <mxCell id="Zzp6PQG__1YS2u12ETKb-3" value="VM" style="rounded=0;whiteSpace=wrap;html=1;" vertex="1" parent="1">
          <mxGeometry x="50" y="110" width="30" height="20" as="geometry" />
        </mxCell>
        <mxCell id="Zzp6PQG__1YS2u12ETKb-4" value="VM" style="rounded=0;whiteSpace=wrap;html=1;" vertex="1" parent="1">
          <mxGeometry x="95" y="110" width="30" height="20" as="geometry" />
        </mxCell>
        <mxCell id="Zzp6PQG__1YS2u12ETKb-5" value="VM" style="rounded=0;whiteSpace=wrap;html=1;" vertex="1" parent="1">
          <mxGeometry x="140" y="110" width="30" height="20" as="geometry" />
        </mxCell>
        <mxCell id="Zzp6PQG__1YS2u12ETKb-6" value="Abstraction &amp;amp; Pooling" style="rounded=0;whiteSpace=wrap;html=1;" vertex="1" parent="1">
          <mxGeometry x="50" y="140" width="120" height="20" as="geometry" />
        </mxCell>
        <mxCell id="Zzp6PQG__1YS2u12ETKb-7" value="&lt;font style=&quot;font-size: 8px;&quot;&gt;Storage&lt;/font&gt;" style="rounded=0;whiteSpace=wrap;html=1;align=center;" vertex="1" parent="1">
          <mxGeometry x="50" y="170" width="30" height="30" as="geometry" />
        </mxCell>
        <mxCell id="Zzp6PQG__1YS2u12ETKb-8" value="&lt;font style=&quot;font-size: 8px;&quot;&gt;Compute&lt;/font&gt;" style="rounded=0;whiteSpace=wrap;html=1;align=center;" vertex="1" parent="1">
          <mxGeometry x="90" y="170" width="35" height="30" as="geometry" />
        </mxCell>
        <mxCell id="Zzp6PQG__1YS2u12ETKb-9" value="&lt;font style=&quot;font-size: 6px;&quot;&gt;Network &amp;amp; Security&lt;/font&gt;" style="rounded=0;whiteSpace=wrap;html=1;" vertex="1" parent="1">
          <mxGeometry x="130" y="170" width="40" height="30" as="geometry" />
        </mxCell>
        <mxCell id="Zzp6PQG__1YS2u12ETKb-10" value="Physical Hardware" style="rounded=0;whiteSpace=wrap;html=1;" vertex="1" parent="1">
          <mxGeometry x="50" y="210" width="120" height="20" as="geometry" />
        </mxCell>
        <mxCell id="Zzp6PQG__1YS2u12ETKb-11" value="Software-defined data center components:" style="text;html=1;align=left;verticalAlign=middle;whiteSpace=wrap;rounded=0;" vertex="1" parent="1">
          <mxGeometry x="40" y="10" width="190" height="30" as="geometry" />
        </mxCell>
        <mxCell id="Zzp6PQG__1YS2u12ETKb-12" value="" style="group" vertex="1" connectable="0" parent="1">
          <mxGeometry x="30" y="260" width="600" height="260" as="geometry" />
        </mxCell>
        <mxCell id="Zzp6PQG__1YS2u12ETKb-13" value="Application" style="rounded=0;whiteSpace=wrap;html=1;fontSize=8;" vertex="1" parent="Zzp6PQG__1YS2u12ETKb-12">
          <mxGeometry x="10" y="60" width="40" height="20" as="geometry" />
        </mxCell>
        <mxCell id="Zzp6PQG__1YS2u12ETKb-14" value="Application" style="rounded=0;whiteSpace=wrap;html=1;fontSize=8;" vertex="1" parent="Zzp6PQG__1YS2u12ETKb-12">
          <mxGeometry x="60" y="60" width="40" height="20" as="geometry" />
        </mxCell>
        <mxCell id="Zzp6PQG__1YS2u12ETKb-15" value="Application" style="rounded=0;whiteSpace=wrap;html=1;fontSize=8;" vertex="1" parent="Zzp6PQG__1YS2u12ETKb-12">
          <mxGeometry x="110" y="60" width="40" height="20" as="geometry" />
        </mxCell>
        <mxCell id="Zzp6PQG__1YS2u12ETKb-16" value="OS" style="rounded=0;whiteSpace=wrap;html=1;" vertex="1" parent="Zzp6PQG__1YS2u12ETKb-12">
          <mxGeometry x="10" y="90" width="140" height="20" as="geometry" />
        </mxCell>
        <mxCell id="Zzp6PQG__1YS2u12ETKb-17" value="Hardware" style="rounded=0;whiteSpace=wrap;html=1;" vertex="1" parent="Zzp6PQG__1YS2u12ETKb-12">
          <mxGeometry x="10" y="120" width="140" height="20" as="geometry" />
        </mxCell>
        <mxCell id="Zzp6PQG__1YS2u12ETKb-18" value="Application" style="rounded=0;whiteSpace=wrap;html=1;fontSize=8;" vertex="1" parent="Zzp6PQG__1YS2u12ETKb-12">
          <mxGeometry x="170" y="60" width="40" height="20" as="geometry" />
        </mxCell>
        <mxCell id="Zzp6PQG__1YS2u12ETKb-19" value="Application" style="rounded=0;whiteSpace=wrap;html=1;fontSize=8;" vertex="1" parent="Zzp6PQG__1YS2u12ETKb-12">
          <mxGeometry x="240" y="60" width="40" height="20" as="geometry" />
        </mxCell>
        <mxCell id="Zzp6PQG__1YS2u12ETKb-20" value="Hypervisor" style="rounded=0;whiteSpace=wrap;html=1;" vertex="1" parent="Zzp6PQG__1YS2u12ETKb-12">
          <mxGeometry x="160" y="160" width="200" height="20" as="geometry" />
        </mxCell>
        <mxCell id="Zzp6PQG__1YS2u12ETKb-21" value="OS" style="rounded=0;whiteSpace=wrap;html=1;fontSize=8;" vertex="1" parent="Zzp6PQG__1YS2u12ETKb-12">
          <mxGeometry x="170" y="90" width="40" height="20" as="geometry" />
        </mxCell>
        <mxCell id="Zzp6PQG__1YS2u12ETKb-22" value="OS" style="rounded=0;whiteSpace=wrap;html=1;fontSize=8;" vertex="1" parent="Zzp6PQG__1YS2u12ETKb-12">
          <mxGeometry x="240" y="90" width="40" height="20" as="geometry" />
        </mxCell>
        <mxCell id="Zzp6PQG__1YS2u12ETKb-23" value="Virtual Hardware" style="rounded=0;whiteSpace=wrap;html=1;fontSize=8;" vertex="1" parent="Zzp6PQG__1YS2u12ETKb-12">
          <mxGeometry x="170" y="120" width="40" height="20" as="geometry" />
        </mxCell>
        <mxCell id="Zzp6PQG__1YS2u12ETKb-24" value="Virtual Hardware" style="rounded=0;whiteSpace=wrap;html=1;fontSize=8;" vertex="1" parent="Zzp6PQG__1YS2u12ETKb-12">
          <mxGeometry x="240" y="120" width="40" height="20" as="geometry" />
        </mxCell>
        <mxCell id="Zzp6PQG__1YS2u12ETKb-25" value="" style="rounded=0;whiteSpace=wrap;html=1;fillColor=none;dashed=1;" vertex="1" parent="Zzp6PQG__1YS2u12ETKb-12">
          <mxGeometry x="160" y="50" width="60" height="100" as="geometry" />
        </mxCell>
        <mxCell id="Zzp6PQG__1YS2u12ETKb-26" value="" style="rounded=0;whiteSpace=wrap;html=1;fillColor=none;dashed=1;" vertex="1" parent="Zzp6PQG__1YS2u12ETKb-12">
          <mxGeometry x="230" y="50" width="60" height="100" as="geometry" />
        </mxCell>
        <mxCell id="Zzp6PQG__1YS2u12ETKb-27" value="Application" style="rounded=0;whiteSpace=wrap;html=1;fontSize=8;" vertex="1" parent="Zzp6PQG__1YS2u12ETKb-12">
          <mxGeometry x="310" y="60" width="40" height="20" as="geometry" />
        </mxCell>
        <mxCell id="Zzp6PQG__1YS2u12ETKb-28" value="OS" style="rounded=0;whiteSpace=wrap;html=1;fontSize=8;" vertex="1" parent="Zzp6PQG__1YS2u12ETKb-12">
          <mxGeometry x="310" y="90" width="40" height="20" as="geometry" />
        </mxCell>
        <mxCell id="Zzp6PQG__1YS2u12ETKb-29" value="Virtual Hardware" style="rounded=0;whiteSpace=wrap;html=1;fontSize=8;" vertex="1" parent="Zzp6PQG__1YS2u12ETKb-12">
          <mxGeometry x="310" y="120" width="40" height="20" as="geometry" />
        </mxCell>
        <mxCell id="Zzp6PQG__1YS2u12ETKb-30" value="" style="rounded=0;whiteSpace=wrap;html=1;fillColor=none;dashed=1;" vertex="1" parent="Zzp6PQG__1YS2u12ETKb-12">
          <mxGeometry x="300" y="50" width="60" height="100" as="geometry" />
        </mxCell>
        <mxCell id="Zzp6PQG__1YS2u12ETKb-31" value="VM" style="text;html=1;align=center;verticalAlign=middle;whiteSpace=wrap;rounded=0;" vertex="1" parent="Zzp6PQG__1YS2u12ETKb-12">
          <mxGeometry x="160" y="20" width="60" height="30" as="geometry" />
        </mxCell>
        <mxCell id="Zzp6PQG__1YS2u12ETKb-32" value="VM" style="text;html=1;align=center;verticalAlign=middle;whiteSpace=wrap;rounded=0;" vertex="1" parent="Zzp6PQG__1YS2u12ETKb-12">
          <mxGeometry x="230" y="20" width="60" height="30" as="geometry" />
        </mxCell>
        <mxCell id="Zzp6PQG__1YS2u12ETKb-33" value="VM" style="text;html=1;align=center;verticalAlign=middle;whiteSpace=wrap;rounded=0;" vertex="1" parent="Zzp6PQG__1YS2u12ETKb-12">
          <mxGeometry x="300" y="20" width="60" height="30" as="geometry" />
        </mxCell>
        <mxCell id="Zzp6PQG__1YS2u12ETKb-34" value="Physical Hardware" style="rounded=0;whiteSpace=wrap;html=1;" vertex="1" parent="Zzp6PQG__1YS2u12ETKb-12">
          <mxGeometry x="160" y="190" width="200" height="20" as="geometry" />
        </mxCell>
        <mxCell id="Zzp6PQG__1YS2u12ETKb-35" value="&lt;u&gt;No virtualization:&lt;/u&gt;" style="text;html=1;align=center;verticalAlign=middle;whiteSpace=wrap;rounded=0;" vertex="1" parent="Zzp6PQG__1YS2u12ETKb-12">
          <mxGeometry width="110" height="30" as="geometry" />
        </mxCell>
        <mxCell id="Zzp6PQG__1YS2u12ETKb-36" value="&lt;u&gt;Type 1:&lt;/u&gt;" style="text;html=1;align=center;verticalAlign=middle;whiteSpace=wrap;rounded=0;" vertex="1" parent="Zzp6PQG__1YS2u12ETKb-12">
          <mxGeometry x="120" width="110" height="30" as="geometry" />
        </mxCell>
        <mxCell id="Zzp6PQG__1YS2u12ETKb-37" value="Application" style="rounded=0;whiteSpace=wrap;html=1;fontSize=8;" vertex="1" parent="Zzp6PQG__1YS2u12ETKb-12">
          <mxGeometry x="394" y="60" width="40" height="20" as="geometry" />
        </mxCell>
        <mxCell id="Zzp6PQG__1YS2u12ETKb-38" value="Application" style="rounded=0;whiteSpace=wrap;html=1;fontSize=8;" vertex="1" parent="Zzp6PQG__1YS2u12ETKb-12">
          <mxGeometry x="464" y="60" width="40" height="20" as="geometry" />
        </mxCell>
        <mxCell id="Zzp6PQG__1YS2u12ETKb-39" value="Hypervisor" style="rounded=0;whiteSpace=wrap;html=1;" vertex="1" parent="Zzp6PQG__1YS2u12ETKb-12">
          <mxGeometry x="384" y="160" width="200" height="20" as="geometry" />
        </mxCell>
        <mxCell id="Zzp6PQG__1YS2u12ETKb-40" value="OS" style="rounded=0;whiteSpace=wrap;html=1;fontSize=8;" vertex="1" parent="Zzp6PQG__1YS2u12ETKb-12">
          <mxGeometry x="394" y="90" width="40" height="20" as="geometry" />
        </mxCell>
        <mxCell id="Zzp6PQG__1YS2u12ETKb-41" value="OS" style="rounded=0;whiteSpace=wrap;html=1;fontSize=8;" vertex="1" parent="Zzp6PQG__1YS2u12ETKb-12">
          <mxGeometry x="464" y="90" width="40" height="20" as="geometry" />
        </mxCell>
        <mxCell id="Zzp6PQG__1YS2u12ETKb-42" value="Virtual Hardware" style="rounded=0;whiteSpace=wrap;html=1;fontSize=8;" vertex="1" parent="Zzp6PQG__1YS2u12ETKb-12">
          <mxGeometry x="394" y="120" width="40" height="20" as="geometry" />
        </mxCell>
        <mxCell id="Zzp6PQG__1YS2u12ETKb-43" value="Virtual Hardware" style="rounded=0;whiteSpace=wrap;html=1;fontSize=8;" vertex="1" parent="Zzp6PQG__1YS2u12ETKb-12">
          <mxGeometry x="464" y="120" width="40" height="20" as="geometry" />
        </mxCell>
        <mxCell id="Zzp6PQG__1YS2u12ETKb-44" value="" style="rounded=0;whiteSpace=wrap;html=1;fillColor=none;dashed=1;" vertex="1" parent="Zzp6PQG__1YS2u12ETKb-12">
          <mxGeometry x="384" y="50" width="60" height="100" as="geometry" />
        </mxCell>
        <mxCell id="Zzp6PQG__1YS2u12ETKb-45" value="" style="rounded=0;whiteSpace=wrap;html=1;fillColor=none;dashed=1;" vertex="1" parent="Zzp6PQG__1YS2u12ETKb-12">
          <mxGeometry x="454" y="50" width="60" height="100" as="geometry" />
        </mxCell>
        <mxCell id="Zzp6PQG__1YS2u12ETKb-46" value="Application" style="rounded=0;whiteSpace=wrap;html=1;fontSize=8;" vertex="1" parent="Zzp6PQG__1YS2u12ETKb-12">
          <mxGeometry x="534" y="60" width="40" height="20" as="geometry" />
        </mxCell>
        <mxCell id="Zzp6PQG__1YS2u12ETKb-47" value="OS" style="rounded=0;whiteSpace=wrap;html=1;fontSize=8;" vertex="1" parent="Zzp6PQG__1YS2u12ETKb-12">
          <mxGeometry x="534" y="90" width="40" height="20" as="geometry" />
        </mxCell>
        <mxCell id="Zzp6PQG__1YS2u12ETKb-48" value="Virtual Hardware" style="rounded=0;whiteSpace=wrap;html=1;fontSize=8;" vertex="1" parent="Zzp6PQG__1YS2u12ETKb-12">
          <mxGeometry x="534" y="120" width="40" height="20" as="geometry" />
        </mxCell>
        <mxCell id="Zzp6PQG__1YS2u12ETKb-49" value="" style="rounded=0;whiteSpace=wrap;html=1;fillColor=none;dashed=1;" vertex="1" parent="Zzp6PQG__1YS2u12ETKb-12">
          <mxGeometry x="524" y="50" width="60" height="100" as="geometry" />
        </mxCell>
        <mxCell id="Zzp6PQG__1YS2u12ETKb-50" value="VM" style="text;html=1;align=center;verticalAlign=middle;whiteSpace=wrap;rounded=0;" vertex="1" parent="Zzp6PQG__1YS2u12ETKb-12">
          <mxGeometry x="384" y="20" width="60" height="30" as="geometry" />
        </mxCell>
        <mxCell id="Zzp6PQG__1YS2u12ETKb-51" value="VM" style="text;html=1;align=center;verticalAlign=middle;whiteSpace=wrap;rounded=0;" vertex="1" parent="Zzp6PQG__1YS2u12ETKb-12">
          <mxGeometry x="454" y="20" width="60" height="30" as="geometry" />
        </mxCell>
        <mxCell id="Zzp6PQG__1YS2u12ETKb-52" value="VM" style="text;html=1;align=center;verticalAlign=middle;whiteSpace=wrap;rounded=0;" vertex="1" parent="Zzp6PQG__1YS2u12ETKb-12">
          <mxGeometry x="524" y="20" width="60" height="30" as="geometry" />
        </mxCell>
        <mxCell id="Zzp6PQG__1YS2u12ETKb-53" value="OS" style="rounded=0;whiteSpace=wrap;html=1;" vertex="1" parent="Zzp6PQG__1YS2u12ETKb-12">
          <mxGeometry x="384" y="190" width="200" height="20" as="geometry" />
        </mxCell>
        <mxCell id="Zzp6PQG__1YS2u12ETKb-54" value="Physical Hardware" style="rounded=0;whiteSpace=wrap;html=1;" vertex="1" parent="Zzp6PQG__1YS2u12ETKb-12">
          <mxGeometry x="384" y="225" width="200" height="20" as="geometry" />
        </mxCell>
        <mxCell id="Zzp6PQG__1YS2u12ETKb-55" value="&lt;u&gt;Type 2:&lt;/u&gt;" style="text;html=1;align=center;verticalAlign=middle;whiteSpace=wrap;rounded=0;" vertex="1" parent="Zzp6PQG__1YS2u12ETKb-12">
          <mxGeometry x="350" width="110" height="30" as="geometry" />
        </mxCell>
        <mxCell id="Zzp6PQG__1YS2u12ETKb-56" value="" style="rounded=0;whiteSpace=wrap;html=1;fillColor=none;dashed=1;" vertex="1" parent="Zzp6PQG__1YS2u12ETKb-12">
          <mxGeometry width="600" height="260" as="geometry" />
        </mxCell>
        <mxCell id="Zzp6PQG__1YS2u12ETKb-57" value="" style="group" vertex="1" connectable="0" parent="1">
          <mxGeometry x="30" y="540" width="290" height="230" as="geometry" />
        </mxCell>
        <mxCell id="Zzp6PQG__1YS2u12ETKb-58" value="OS" style="rounded=0;whiteSpace=wrap;html=1;" vertex="1" parent="Zzp6PQG__1YS2u12ETKb-57">
          <mxGeometry x="10" y="130" width="110" height="20" as="geometry" />
        </mxCell>
        <mxCell id="Zzp6PQG__1YS2u12ETKb-59" value="Container Engine" style="rounded=0;whiteSpace=wrap;html=1;" vertex="1" parent="Zzp6PQG__1YS2u12ETKb-57">
          <mxGeometry x="10" y="100" width="110" height="20" as="geometry" />
        </mxCell>
        <mxCell id="Zzp6PQG__1YS2u12ETKb-60" value="&lt;u&gt;Container:&lt;/u&gt;" style="text;html=1;align=center;verticalAlign=middle;whiteSpace=wrap;rounded=0;" vertex="1" parent="Zzp6PQG__1YS2u12ETKb-57">
          <mxGeometry x="20" width="60" height="30" as="geometry" />
        </mxCell>
        <mxCell id="Zzp6PQG__1YS2u12ETKb-61" value="Container Engine" style="rounded=0;whiteSpace=wrap;html=1;" vertex="1" parent="Zzp6PQG__1YS2u12ETKb-57">
          <mxGeometry x="140" y="140" width="140" height="20" as="geometry" />
        </mxCell>
        <mxCell id="Zzp6PQG__1YS2u12ETKb-62" value="&lt;u&gt;Containers &amp;amp; VMs:&lt;/u&gt;" style="text;html=1;align=center;verticalAlign=middle;whiteSpace=wrap;rounded=0;" vertex="1" parent="Zzp6PQG__1YS2u12ETKb-57">
          <mxGeometry x="130" width="120" height="30" as="geometry" />
        </mxCell>
        <mxCell id="Zzp6PQG__1YS2u12ETKb-63" value="" style="group" vertex="1" connectable="0" parent="Zzp6PQG__1YS2u12ETKb-57">
          <mxGeometry x="10" y="50" width="30" height="40" as="geometry" />
        </mxCell>
        <mxCell id="Zzp6PQG__1YS2u12ETKb-64" value="" style="rounded=0;whiteSpace=wrap;html=1;fontSize=6;" vertex="1" parent="Zzp6PQG__1YS2u12ETKb-63">
          <mxGeometry width="30" height="40" as="geometry" />
        </mxCell>
        <mxCell id="Zzp6PQG__1YS2u12ETKb-65" value="App" style="rounded=0;whiteSpace=wrap;html=1;fontSize=6;fillColor=#dae8fc;strokeColor=#6c8ebf;" vertex="1" parent="Zzp6PQG__1YS2u12ETKb-63">
          <mxGeometry x="5" y="20" width="20" height="10" as="geometry" />
        </mxCell>
        <mxCell id="Zzp6PQG__1YS2u12ETKb-66" value="&lt;font style=&quot;font-size: 6px;&quot;&gt;Container&lt;/font&gt;" style="text;html=1;align=center;verticalAlign=middle;whiteSpace=wrap;rounded=0;" vertex="1" parent="Zzp6PQG__1YS2u12ETKb-63">
          <mxGeometry x="2.5" width="25" height="20" as="geometry" />
        </mxCell>
        <mxCell id="Zzp6PQG__1YS2u12ETKb-67" value="" style="group" vertex="1" connectable="0" parent="Zzp6PQG__1YS2u12ETKb-57">
          <mxGeometry x="50" y="50" width="30" height="40" as="geometry" />
        </mxCell>
        <mxCell id="Zzp6PQG__1YS2u12ETKb-68" value="" style="rounded=0;whiteSpace=wrap;html=1;fontSize=6;" vertex="1" parent="Zzp6PQG__1YS2u12ETKb-67">
          <mxGeometry width="30" height="40" as="geometry" />
        </mxCell>
        <mxCell id="Zzp6PQG__1YS2u12ETKb-69" value="App" style="rounded=0;whiteSpace=wrap;html=1;fontSize=6;fillColor=#dae8fc;strokeColor=#6c8ebf;" vertex="1" parent="Zzp6PQG__1YS2u12ETKb-67">
          <mxGeometry x="5" y="20" width="20" height="10" as="geometry" />
        </mxCell>
        <mxCell id="Zzp6PQG__1YS2u12ETKb-70" value="&lt;font style=&quot;font-size: 6px;&quot;&gt;Container&lt;/font&gt;" style="text;html=1;align=center;verticalAlign=middle;whiteSpace=wrap;rounded=0;" vertex="1" parent="Zzp6PQG__1YS2u12ETKb-67">
          <mxGeometry x="2.5" width="25" height="20" as="geometry" />
        </mxCell>
        <mxCell id="Zzp6PQG__1YS2u12ETKb-71" value="" style="group" vertex="1" connectable="0" parent="Zzp6PQG__1YS2u12ETKb-57">
          <mxGeometry x="90" y="50" width="30" height="40" as="geometry" />
        </mxCell>
        <mxCell id="Zzp6PQG__1YS2u12ETKb-72" value="" style="rounded=0;whiteSpace=wrap;html=1;fontSize=6;" vertex="1" parent="Zzp6PQG__1YS2u12ETKb-71">
          <mxGeometry width="30" height="40" as="geometry" />
        </mxCell>
        <mxCell id="Zzp6PQG__1YS2u12ETKb-73" value="App" style="rounded=0;whiteSpace=wrap;html=1;fontSize=6;fillColor=#dae8fc;strokeColor=#6c8ebf;" vertex="1" parent="Zzp6PQG__1YS2u12ETKb-71">
          <mxGeometry x="5" y="20" width="20" height="10" as="geometry" />
        </mxCell>
        <mxCell id="Zzp6PQG__1YS2u12ETKb-74" value="&lt;font style=&quot;font-size: 6px;&quot;&gt;Container&lt;/font&gt;" style="text;html=1;align=center;verticalAlign=middle;whiteSpace=wrap;rounded=0;" vertex="1" parent="Zzp6PQG__1YS2u12ETKb-71">
          <mxGeometry x="2.5" width="25" height="20" as="geometry" />
        </mxCell>
        <mxCell id="Zzp6PQG__1YS2u12ETKb-75" value="" style="group" vertex="1" connectable="0" parent="Zzp6PQG__1YS2u12ETKb-57">
          <mxGeometry x="230" y="50" width="60" height="75" as="geometry" />
        </mxCell>
        <mxCell id="Zzp6PQG__1YS2u12ETKb-76" value="" style="rounded=0;whiteSpace=wrap;html=1;fillColor=none;" vertex="1" parent="Zzp6PQG__1YS2u12ETKb-75">
          <mxGeometry x="10" width="40" height="75" as="geometry" />
        </mxCell>
        <mxCell id="Zzp6PQG__1YS2u12ETKb-77" value="&lt;font style=&quot;font-size: 8px;&quot;&gt;Guest OS&lt;/font&gt;" style="text;html=1;align=center;verticalAlign=middle;whiteSpace=wrap;rounded=0;" vertex="1" parent="Zzp6PQG__1YS2u12ETKb-75">
          <mxGeometry y="10" width="60" height="10" as="geometry" />
        </mxCell>
        <mxCell id="Zzp6PQG__1YS2u12ETKb-78" value="" style="group" vertex="1" connectable="0" parent="Zzp6PQG__1YS2u12ETKb-75">
          <mxGeometry x="15" y="30" width="30" height="40" as="geometry" />
        </mxCell>
        <mxCell id="Zzp6PQG__1YS2u12ETKb-79" value="" style="rounded=0;whiteSpace=wrap;html=1;fontSize=6;" vertex="1" parent="Zzp6PQG__1YS2u12ETKb-78">
          <mxGeometry width="30" height="40" as="geometry" />
        </mxCell>
        <mxCell id="Zzp6PQG__1YS2u12ETKb-80" value="App" style="rounded=0;whiteSpace=wrap;html=1;fontSize=6;fillColor=#dae8fc;strokeColor=#6c8ebf;" vertex="1" parent="Zzp6PQG__1YS2u12ETKb-78">
          <mxGeometry x="5" y="20" width="20" height="10" as="geometry" />
        </mxCell>
        <mxCell id="Zzp6PQG__1YS2u12ETKb-81" value="&lt;font style=&quot;font-size: 6px;&quot;&gt;Container&lt;/font&gt;" style="text;html=1;align=center;verticalAlign=middle;whiteSpace=wrap;rounded=0;" vertex="1" parent="Zzp6PQG__1YS2u12ETKb-78">
          <mxGeometry x="2.5" width="25" height="20" as="geometry" />
        </mxCell>
        <mxCell id="Zzp6PQG__1YS2u12ETKb-82" value="&lt;font style=&quot;font-size: 10px;&quot;&gt;VM&lt;/font&gt;" style="text;html=1;align=center;verticalAlign=middle;whiteSpace=wrap;rounded=0;" vertex="1" parent="Zzp6PQG__1YS2u12ETKb-57">
          <mxGeometry x="245" y="30" width="30" height="10" as="geometry" />
        </mxCell>
        <mxCell id="Zzp6PQG__1YS2u12ETKb-83" value="Hypervisor" style="rounded=0;whiteSpace=wrap;html=1;" vertex="1" parent="Zzp6PQG__1YS2u12ETKb-57">
          <mxGeometry x="140" y="170" width="140" height="20" as="geometry" />
        </mxCell>
        <mxCell id="Zzp6PQG__1YS2u12ETKb-84" value="Physical Hardware" style="rounded=0;whiteSpace=wrap;html=1;" vertex="1" parent="Zzp6PQG__1YS2u12ETKb-57">
          <mxGeometry x="140" y="200" width="140" height="20" as="geometry" />
        </mxCell>
        <mxCell id="Zzp6PQG__1YS2u12ETKb-85" value="" style="group" vertex="1" connectable="0" parent="Zzp6PQG__1YS2u12ETKb-57">
          <mxGeometry x="180" y="50" width="60" height="75" as="geometry" />
        </mxCell>
        <mxCell id="Zzp6PQG__1YS2u12ETKb-86" value="" style="rounded=0;whiteSpace=wrap;html=1;fillColor=none;" vertex="1" parent="Zzp6PQG__1YS2u12ETKb-85">
          <mxGeometry x="10" width="40" height="75" as="geometry" />
        </mxCell>
        <mxCell id="Zzp6PQG__1YS2u12ETKb-87" value="&lt;font style=&quot;font-size: 8px;&quot;&gt;Guest OS&lt;/font&gt;" style="text;html=1;align=center;verticalAlign=middle;whiteSpace=wrap;rounded=0;" vertex="1" parent="Zzp6PQG__1YS2u12ETKb-85">
          <mxGeometry y="10" width="60" height="10" as="geometry" />
        </mxCell>
        <mxCell id="Zzp6PQG__1YS2u12ETKb-88" value="" style="group" vertex="1" connectable="0" parent="Zzp6PQG__1YS2u12ETKb-85">
          <mxGeometry x="15" y="30" width="30" height="40" as="geometry" />
        </mxCell>
        <mxCell id="Zzp6PQG__1YS2u12ETKb-89" value="" style="rounded=0;whiteSpace=wrap;html=1;fontSize=6;" vertex="1" parent="Zzp6PQG__1YS2u12ETKb-88">
          <mxGeometry width="30" height="40" as="geometry" />
        </mxCell>
        <mxCell id="Zzp6PQG__1YS2u12ETKb-90" value="App" style="rounded=0;whiteSpace=wrap;html=1;fontSize=6;fillColor=#dae8fc;strokeColor=#6c8ebf;" vertex="1" parent="Zzp6PQG__1YS2u12ETKb-88">
          <mxGeometry x="5" y="20" width="20" height="10" as="geometry" />
        </mxCell>
        <mxCell id="Zzp6PQG__1YS2u12ETKb-91" value="&lt;font style=&quot;font-size: 6px;&quot;&gt;Container&lt;/font&gt;" style="text;html=1;align=center;verticalAlign=middle;whiteSpace=wrap;rounded=0;" vertex="1" parent="Zzp6PQG__1YS2u12ETKb-88">
          <mxGeometry x="2.5" width="25" height="20" as="geometry" />
        </mxCell>
        <mxCell id="Zzp6PQG__1YS2u12ETKb-92" value="&lt;font style=&quot;font-size: 10px;&quot;&gt;VM&lt;/font&gt;" style="text;html=1;align=center;verticalAlign=middle;whiteSpace=wrap;rounded=0;" vertex="1" parent="Zzp6PQG__1YS2u12ETKb-57">
          <mxGeometry x="195" y="30" width="30" height="10" as="geometry" />
        </mxCell>
        <mxCell id="Zzp6PQG__1YS2u12ETKb-93" value="" style="group" vertex="1" connectable="0" parent="Zzp6PQG__1YS2u12ETKb-57">
          <mxGeometry x="130" y="50" width="60" height="75" as="geometry" />
        </mxCell>
        <mxCell id="Zzp6PQG__1YS2u12ETKb-94" value="" style="rounded=0;whiteSpace=wrap;html=1;fillColor=none;" vertex="1" parent="Zzp6PQG__1YS2u12ETKb-93">
          <mxGeometry x="10" width="40" height="75" as="geometry" />
        </mxCell>
        <mxCell id="Zzp6PQG__1YS2u12ETKb-95" value="&lt;font style=&quot;font-size: 8px;&quot;&gt;Guest OS&lt;/font&gt;" style="text;html=1;align=center;verticalAlign=middle;whiteSpace=wrap;rounded=0;" vertex="1" parent="Zzp6PQG__1YS2u12ETKb-93">
          <mxGeometry y="10" width="60" height="10" as="geometry" />
        </mxCell>
        <mxCell id="Zzp6PQG__1YS2u12ETKb-96" value="" style="group" vertex="1" connectable="0" parent="Zzp6PQG__1YS2u12ETKb-93">
          <mxGeometry x="15" y="30" width="30" height="40" as="geometry" />
        </mxCell>
        <mxCell id="Zzp6PQG__1YS2u12ETKb-97" value="" style="rounded=0;whiteSpace=wrap;html=1;fontSize=6;" vertex="1" parent="Zzp6PQG__1YS2u12ETKb-96">
          <mxGeometry width="30" height="40" as="geometry" />
        </mxCell>
        <mxCell id="Zzp6PQG__1YS2u12ETKb-98" value="App" style="rounded=0;whiteSpace=wrap;html=1;fontSize=6;fillColor=#dae8fc;strokeColor=#6c8ebf;" vertex="1" parent="Zzp6PQG__1YS2u12ETKb-96">
          <mxGeometry x="5" y="20" width="20" height="10" as="geometry" />
        </mxCell>
        <mxCell id="Zzp6PQG__1YS2u12ETKb-99" value="&lt;font style=&quot;font-size: 6px;&quot;&gt;Container&lt;/font&gt;" style="text;html=1;align=center;verticalAlign=middle;whiteSpace=wrap;rounded=0;" vertex="1" parent="Zzp6PQG__1YS2u12ETKb-96">
          <mxGeometry x="2.5" width="25" height="20" as="geometry" />
        </mxCell>
        <mxCell id="Zzp6PQG__1YS2u12ETKb-100" value="&lt;font style=&quot;font-size: 10px;&quot;&gt;VM&lt;/font&gt;" style="text;html=1;align=center;verticalAlign=middle;whiteSpace=wrap;rounded=0;" vertex="1" parent="Zzp6PQG__1YS2u12ETKb-57">
          <mxGeometry x="145" y="30" width="30" height="10" as="geometry" />
        </mxCell>
        <mxCell id="Zzp6PQG__1YS2u12ETKb-101" value="" style="rounded=0;whiteSpace=wrap;html=1;fillColor=none;dashed=1;" vertex="1" parent="Zzp6PQG__1YS2u12ETKb-57">
          <mxGeometry width="290" height="230" as="geometry" />
        </mxCell>
        <mxCell id="Zzp6PQG__1YS2u12ETKb-102" value="" style="group" vertex="1" connectable="0" parent="1">
          <mxGeometry x="340" y="540" width="316" height="170" as="geometry" />
        </mxCell>
        <mxCell id="Zzp6PQG__1YS2u12ETKb-103" value="Application" style="rounded=0;whiteSpace=wrap;html=1;fontSize=6;" vertex="1" parent="Zzp6PQG__1YS2u12ETKb-102">
          <mxGeometry x="6" y="30" width="40" height="20" as="geometry" />
        </mxCell>
        <mxCell id="Zzp6PQG__1YS2u12ETKb-104" value="OS" style="rounded=0;whiteSpace=wrap;html=1;fontSize=6;" vertex="1" parent="Zzp6PQG__1YS2u12ETKb-102">
          <mxGeometry x="6" y="55" width="40" height="20" as="geometry" />
        </mxCell>
        <mxCell id="Zzp6PQG__1YS2u12ETKb-105" value="VM" style="rounded=0;whiteSpace=wrap;html=1;fontSize=6;" vertex="1" parent="Zzp6PQG__1YS2u12ETKb-102">
          <mxGeometry x="6" y="80" width="40" height="20" as="geometry" />
        </mxCell>
        <mxCell id="Zzp6PQG__1YS2u12ETKb-106" value="Application" style="rounded=0;whiteSpace=wrap;html=1;fontSize=6;" vertex="1" parent="Zzp6PQG__1YS2u12ETKb-102">
          <mxGeometry x="56" y="30" width="40" height="20" as="geometry" />
        </mxCell>
        <mxCell id="Zzp6PQG__1YS2u12ETKb-107" value="OS" style="rounded=0;whiteSpace=wrap;html=1;fontSize=6;" vertex="1" parent="Zzp6PQG__1YS2u12ETKb-102">
          <mxGeometry x="56" y="55" width="40" height="20" as="geometry" />
        </mxCell>
        <mxCell id="Zzp6PQG__1YS2u12ETKb-108" value="VM" style="rounded=0;whiteSpace=wrap;html=1;fontSize=6;" vertex="1" parent="Zzp6PQG__1YS2u12ETKb-102">
          <mxGeometry x="56" y="80" width="40" height="20" as="geometry" />
        </mxCell>
        <mxCell id="Zzp6PQG__1YS2u12ETKb-109" value="Application" style="rounded=0;whiteSpace=wrap;html=1;fontSize=6;" vertex="1" parent="Zzp6PQG__1YS2u12ETKb-102">
          <mxGeometry x="106" y="30" width="40" height="20" as="geometry" />
        </mxCell>
        <mxCell id="Zzp6PQG__1YS2u12ETKb-110" value="OS" style="rounded=0;whiteSpace=wrap;html=1;fontSize=6;" vertex="1" parent="Zzp6PQG__1YS2u12ETKb-102">
          <mxGeometry x="106" y="55" width="40" height="20" as="geometry" />
        </mxCell>
        <mxCell id="Zzp6PQG__1YS2u12ETKb-111" value="VM" style="rounded=0;whiteSpace=wrap;html=1;fontSize=6;" vertex="1" parent="Zzp6PQG__1YS2u12ETKb-102">
          <mxGeometry x="106" y="80" width="40" height="20" as="geometry" />
        </mxCell>
        <mxCell id="Zzp6PQG__1YS2u12ETKb-112" value="VMware ESXi Server" style="rounded=0;whiteSpace=wrap;html=1;" vertex="1" parent="Zzp6PQG__1YS2u12ETKb-102">
          <mxGeometry x="6" y="110" width="140" height="20" as="geometry" />
        </mxCell>
        <mxCell id="Zzp6PQG__1YS2u12ETKb-113" value="Physical Host" style="rounded=0;whiteSpace=wrap;html=1;" vertex="1" parent="Zzp6PQG__1YS2u12ETKb-102">
          <mxGeometry x="6" y="140" width="140" height="20" as="geometry" />
        </mxCell>
        <mxCell id="Zzp6PQG__1YS2u12ETKb-114" value="Application" style="rounded=0;whiteSpace=wrap;html=1;fontSize=6;" vertex="1" parent="Zzp6PQG__1YS2u12ETKb-102">
          <mxGeometry x="166" y="30" width="40" height="20" as="geometry" />
        </mxCell>
        <mxCell id="Zzp6PQG__1YS2u12ETKb-115" value="OS" style="rounded=0;whiteSpace=wrap;html=1;fontSize=6;" vertex="1" parent="Zzp6PQG__1YS2u12ETKb-102">
          <mxGeometry x="166" y="55" width="40" height="20" as="geometry" />
        </mxCell>
        <mxCell id="Zzp6PQG__1YS2u12ETKb-116" value="VM" style="rounded=0;whiteSpace=wrap;html=1;fontSize=6;" vertex="1" parent="Zzp6PQG__1YS2u12ETKb-102">
          <mxGeometry x="166" y="80" width="40" height="20" as="geometry" />
        </mxCell>
        <mxCell id="Zzp6PQG__1YS2u12ETKb-117" value="Application" style="rounded=0;whiteSpace=wrap;html=1;fontSize=6;" vertex="1" parent="Zzp6PQG__1YS2u12ETKb-102">
          <mxGeometry x="216" y="30" width="40" height="20" as="geometry" />
        </mxCell>
        <mxCell id="Zzp6PQG__1YS2u12ETKb-118" value="OS" style="rounded=0;whiteSpace=wrap;html=1;fontSize=6;" vertex="1" parent="Zzp6PQG__1YS2u12ETKb-102">
          <mxGeometry x="216" y="55" width="40" height="20" as="geometry" />
        </mxCell>
        <mxCell id="Zzp6PQG__1YS2u12ETKb-119" value="VM" style="rounded=0;whiteSpace=wrap;html=1;fontSize=6;" vertex="1" parent="Zzp6PQG__1YS2u12ETKb-102">
          <mxGeometry x="216" y="80" width="40" height="20" as="geometry" />
        </mxCell>
        <mxCell id="Zzp6PQG__1YS2u12ETKb-120" value="Application" style="rounded=0;whiteSpace=wrap;html=1;fontSize=6;" vertex="1" parent="Zzp6PQG__1YS2u12ETKb-102">
          <mxGeometry x="266" y="30" width="40" height="20" as="geometry" />
        </mxCell>
        <mxCell id="Zzp6PQG__1YS2u12ETKb-121" value="OS" style="rounded=0;whiteSpace=wrap;html=1;fontSize=6;" vertex="1" parent="Zzp6PQG__1YS2u12ETKb-102">
          <mxGeometry x="266" y="55" width="40" height="20" as="geometry" />
        </mxCell>
        <mxCell id="Zzp6PQG__1YS2u12ETKb-122" value="VM" style="rounded=0;whiteSpace=wrap;html=1;fontSize=6;" vertex="1" parent="Zzp6PQG__1YS2u12ETKb-102">
          <mxGeometry x="266" y="80" width="40" height="20" as="geometry" />
        </mxCell>
        <mxCell id="Zzp6PQG__1YS2u12ETKb-123" value="VMware ESXi Server" style="rounded=0;whiteSpace=wrap;html=1;" vertex="1" parent="Zzp6PQG__1YS2u12ETKb-102">
          <mxGeometry x="166" y="110" width="140" height="20" as="geometry" />
        </mxCell>
        <mxCell id="Zzp6PQG__1YS2u12ETKb-124" value="Physical Host" style="rounded=0;whiteSpace=wrap;html=1;" vertex="1" parent="Zzp6PQG__1YS2u12ETKb-102">
          <mxGeometry x="166" y="140" width="140" height="20" as="geometry" />
        </mxCell>
        <mxCell id="Zzp6PQG__1YS2u12ETKb-125" value="&lt;u&gt;VMware ESXi Hypervisor:&lt;/u&gt;" style="text;html=1;align=center;verticalAlign=middle;whiteSpace=wrap;rounded=0;" vertex="1" parent="Zzp6PQG__1YS2u12ETKb-102">
          <mxGeometry x="3" width="146" height="30" as="geometry" />
        </mxCell>
        <mxCell id="Zzp6PQG__1YS2u12ETKb-126" value="" style="rounded=0;whiteSpace=wrap;html=1;fillColor=none;dashed=1;" vertex="1" parent="Zzp6PQG__1YS2u12ETKb-102">
          <mxGeometry y="5" width="316" height="170" as="geometry" />
        </mxCell>
        <mxCell id="Zzp6PQG__1YS2u12ETKb-127" value="" style="group" vertex="1" connectable="0" parent="1">
          <mxGeometry x="340" y="730" width="316" height="180" as="geometry" />
        </mxCell>
        <mxCell id="Zzp6PQG__1YS2u12ETKb-128" value="VMware vCenter Server" style="rounded=0;whiteSpace=wrap;html=1;fillColor=#dae8fc;strokeColor=#6c8ebf;" vertex="1" parent="Zzp6PQG__1YS2u12ETKb-127">
          <mxGeometry x="10" y="140" width="296" height="30" as="geometry" />
        </mxCell>
        <mxCell id="Zzp6PQG__1YS2u12ETKb-129" value="Application" style="rounded=0;whiteSpace=wrap;html=1;fontSize=6;" vertex="1" parent="Zzp6PQG__1YS2u12ETKb-127">
          <mxGeometry x="6" y="10" width="40" height="20" as="geometry" />
        </mxCell>
        <mxCell id="Zzp6PQG__1YS2u12ETKb-130" value="OS" style="rounded=0;whiteSpace=wrap;html=1;fontSize=6;" vertex="1" parent="Zzp6PQG__1YS2u12ETKb-127">
          <mxGeometry x="6" y="35" width="40" height="20" as="geometry" />
        </mxCell>
        <mxCell id="Zzp6PQG__1YS2u12ETKb-131" value="VM" style="rounded=0;whiteSpace=wrap;html=1;fontSize=6;" vertex="1" parent="Zzp6PQG__1YS2u12ETKb-127">
          <mxGeometry x="6" y="60" width="40" height="20" as="geometry" />
        </mxCell>
        <mxCell id="Zzp6PQG__1YS2u12ETKb-132" value="Application" style="rounded=0;whiteSpace=wrap;html=1;fontSize=6;" vertex="1" parent="Zzp6PQG__1YS2u12ETKb-127">
          <mxGeometry x="56" y="10" width="40" height="20" as="geometry" />
        </mxCell>
        <mxCell id="Zzp6PQG__1YS2u12ETKb-133" value="OS" style="rounded=0;whiteSpace=wrap;html=1;fontSize=6;" vertex="1" parent="Zzp6PQG__1YS2u12ETKb-127">
          <mxGeometry x="56" y="35" width="40" height="20" as="geometry" />
        </mxCell>
        <mxCell id="Zzp6PQG__1YS2u12ETKb-134" value="VM" style="rounded=0;whiteSpace=wrap;html=1;fontSize=6;" vertex="1" parent="Zzp6PQG__1YS2u12ETKb-127">
          <mxGeometry x="56" y="60" width="40" height="20" as="geometry" />
        </mxCell>
        <mxCell id="Zzp6PQG__1YS2u12ETKb-135" value="Application" style="rounded=0;whiteSpace=wrap;html=1;fontSize=6;" vertex="1" parent="Zzp6PQG__1YS2u12ETKb-127">
          <mxGeometry x="106" y="10" width="40" height="20" as="geometry" />
        </mxCell>
        <mxCell id="Zzp6PQG__1YS2u12ETKb-136" value="OS" style="rounded=0;whiteSpace=wrap;html=1;fontSize=6;" vertex="1" parent="Zzp6PQG__1YS2u12ETKb-127">
          <mxGeometry x="106" y="35" width="40" height="20" as="geometry" />
        </mxCell>
        <mxCell id="Zzp6PQG__1YS2u12ETKb-137" value="VM" style="rounded=0;whiteSpace=wrap;html=1;fontSize=6;" vertex="1" parent="Zzp6PQG__1YS2u12ETKb-127">
          <mxGeometry x="106" y="60" width="40" height="20" as="geometry" />
        </mxCell>
        <mxCell id="Zzp6PQG__1YS2u12ETKb-138" value="VMware ESXi Server" style="rounded=0;whiteSpace=wrap;html=1;fillColor=#d5e8d4;strokeColor=#82b366;" vertex="1" parent="Zzp6PQG__1YS2u12ETKb-127">
          <mxGeometry x="6" y="90" width="140" height="20" as="geometry" />
        </mxCell>
        <mxCell id="Zzp6PQG__1YS2u12ETKb-139" value="Application" style="rounded=0;whiteSpace=wrap;html=1;fontSize=6;" vertex="1" parent="Zzp6PQG__1YS2u12ETKb-127">
          <mxGeometry x="166" y="10" width="40" height="20" as="geometry" />
        </mxCell>
        <mxCell id="Zzp6PQG__1YS2u12ETKb-140" value="OS" style="rounded=0;whiteSpace=wrap;html=1;fontSize=6;" vertex="1" parent="Zzp6PQG__1YS2u12ETKb-127">
          <mxGeometry x="166" y="35" width="40" height="20" as="geometry" />
        </mxCell>
        <mxCell id="Zzp6PQG__1YS2u12ETKb-141" value="VM" style="rounded=0;whiteSpace=wrap;html=1;fontSize=6;" vertex="1" parent="Zzp6PQG__1YS2u12ETKb-127">
          <mxGeometry x="166" y="60" width="40" height="20" as="geometry" />
        </mxCell>
        <mxCell id="Zzp6PQG__1YS2u12ETKb-142" value="Application" style="rounded=0;whiteSpace=wrap;html=1;fontSize=6;" vertex="1" parent="Zzp6PQG__1YS2u12ETKb-127">
          <mxGeometry x="216" y="10" width="40" height="20" as="geometry" />
        </mxCell>
        <mxCell id="Zzp6PQG__1YS2u12ETKb-143" value="OS" style="rounded=0;whiteSpace=wrap;html=1;fontSize=6;" vertex="1" parent="Zzp6PQG__1YS2u12ETKb-127">
          <mxGeometry x="216" y="35" width="40" height="20" as="geometry" />
        </mxCell>
        <mxCell id="Zzp6PQG__1YS2u12ETKb-144" value="VM" style="rounded=0;whiteSpace=wrap;html=1;fontSize=6;" vertex="1" parent="Zzp6PQG__1YS2u12ETKb-127">
          <mxGeometry x="216" y="60" width="40" height="20" as="geometry" />
        </mxCell>
        <mxCell id="Zzp6PQG__1YS2u12ETKb-145" value="Application" style="rounded=0;whiteSpace=wrap;html=1;fontSize=6;" vertex="1" parent="Zzp6PQG__1YS2u12ETKb-127">
          <mxGeometry x="266" y="10" width="40" height="20" as="geometry" />
        </mxCell>
        <mxCell id="Zzp6PQG__1YS2u12ETKb-146" value="OS" style="rounded=0;whiteSpace=wrap;html=1;fontSize=6;" vertex="1" parent="Zzp6PQG__1YS2u12ETKb-127">
          <mxGeometry x="266" y="35" width="40" height="20" as="geometry" />
        </mxCell>
        <mxCell id="Zzp6PQG__1YS2u12ETKb-147" value="VM" style="rounded=0;whiteSpace=wrap;html=1;fontSize=6;" vertex="1" parent="Zzp6PQG__1YS2u12ETKb-127">
          <mxGeometry x="266" y="60" width="40" height="20" as="geometry" />
        </mxCell>
        <mxCell id="Zzp6PQG__1YS2u12ETKb-148" value="VMware ESXi Server" style="rounded=0;whiteSpace=wrap;html=1;fillColor=#d5e8d4;strokeColor=#82b366;" vertex="1" parent="Zzp6PQG__1YS2u12ETKb-127">
          <mxGeometry x="166" y="90" width="140" height="20" as="geometry" />
        </mxCell>
        <mxCell id="Zzp6PQG__1YS2u12ETKb-149" value="" style="rounded=0;whiteSpace=wrap;html=1;fillColor=none;dashed=1;" vertex="1" parent="Zzp6PQG__1YS2u12ETKb-127">
          <mxGeometry width="316" height="180" as="geometry" />
        </mxCell>
        <mxCell id="Zzp6PQG__1YS2u12ETKb-150" value="" style="endArrow=classic;startArrow=classic;html=1;rounded=0;entryX=0.5;entryY=1;entryDx=0;entryDy=0;exitX=0.223;exitY=-0.054;exitDx=0;exitDy=0;exitPerimeter=0;" edge="1" parent="Zzp6PQG__1YS2u12ETKb-127" source="Zzp6PQG__1YS2u12ETKb-128" target="Zzp6PQG__1YS2u12ETKb-138">
          <mxGeometry width="50" height="50" relative="1" as="geometry">
            <mxPoint x="90" y="160" as="sourcePoint" />
            <mxPoint x="140" y="110" as="targetPoint" />
          </mxGeometry>
        </mxCell>
        <mxCell id="Zzp6PQG__1YS2u12ETKb-151" value="" style="endArrow=classic;startArrow=classic;html=1;rounded=0;entryX=0.5;entryY=1;entryDx=0;entryDy=0;exitX=0.779;exitY=-0.041;exitDx=0;exitDy=0;exitPerimeter=0;" edge="1" parent="Zzp6PQG__1YS2u12ETKb-127" source="Zzp6PQG__1YS2u12ETKb-128">
          <mxGeometry width="50" height="50" relative="1" as="geometry">
            <mxPoint x="242" y="168" as="sourcePoint" />
            <mxPoint x="240" y="110" as="targetPoint" />
          </mxGeometry>
        </mxCell>
        <mxCell id="Zzp6PQG__1YS2u12ETKb-152" value="Manage" style="text;html=1;align=center;verticalAlign=middle;whiteSpace=wrap;rounded=0;" vertex="1" parent="Zzp6PQG__1YS2u12ETKb-127">
          <mxGeometry x="80" y="110" width="60" height="30" as="geometry" />
        </mxCell>
        <mxCell id="Zzp6PQG__1YS2u12ETKb-153" value="Manage" style="text;html=1;align=center;verticalAlign=middle;whiteSpace=wrap;rounded=0;" vertex="1" parent="Zzp6PQG__1YS2u12ETKb-127">
          <mxGeometry x="180" y="110" width="60" height="30" as="geometry" />
        </mxCell>
        <mxCell id="Zzp6PQG__1YS2u12ETKb-154" value="" style="group" vertex="1" connectable="0" parent="1">
          <mxGeometry x="30" y="930" width="316" height="210" as="geometry" />
        </mxCell>
        <mxCell id="Zzp6PQG__1YS2u12ETKb-155" value="Application" style="rounded=0;whiteSpace=wrap;html=1;fontSize=6;" vertex="1" parent="Zzp6PQG__1YS2u12ETKb-154">
          <mxGeometry x="11" y="10" width="40" height="20" as="geometry" />
        </mxCell>
        <mxCell id="Zzp6PQG__1YS2u12ETKb-156" value="OS" style="rounded=0;whiteSpace=wrap;html=1;fontSize=6;" vertex="1" parent="Zzp6PQG__1YS2u12ETKb-154">
          <mxGeometry x="11" y="35" width="40" height="20" as="geometry" />
        </mxCell>
        <mxCell id="Zzp6PQG__1YS2u12ETKb-157" value="VM" style="rounded=0;whiteSpace=wrap;html=1;fontSize=6;" vertex="1" parent="Zzp6PQG__1YS2u12ETKb-154">
          <mxGeometry x="11" y="60" width="40" height="20" as="geometry" />
        </mxCell>
        <mxCell id="Zzp6PQG__1YS2u12ETKb-158" value="Application" style="rounded=0;whiteSpace=wrap;html=1;fontSize=6;" vertex="1" parent="Zzp6PQG__1YS2u12ETKb-154">
          <mxGeometry x="61" y="10" width="40" height="20" as="geometry" />
        </mxCell>
        <mxCell id="Zzp6PQG__1YS2u12ETKb-159" value="OS" style="rounded=0;whiteSpace=wrap;html=1;fontSize=6;" vertex="1" parent="Zzp6PQG__1YS2u12ETKb-154">
          <mxGeometry x="61" y="35" width="40" height="20" as="geometry" />
        </mxCell>
        <mxCell id="Zzp6PQG__1YS2u12ETKb-160" value="VM" style="rounded=0;whiteSpace=wrap;html=1;fontSize=6;" vertex="1" parent="Zzp6PQG__1YS2u12ETKb-154">
          <mxGeometry x="61" y="60" width="40" height="20" as="geometry" />
        </mxCell>
        <mxCell id="Zzp6PQG__1YS2u12ETKb-161" value="Application" style="rounded=0;whiteSpace=wrap;html=1;fontSize=6;" vertex="1" parent="Zzp6PQG__1YS2u12ETKb-154">
          <mxGeometry x="111" y="10" width="40" height="20" as="geometry" />
        </mxCell>
        <mxCell id="Zzp6PQG__1YS2u12ETKb-162" value="OS" style="rounded=0;whiteSpace=wrap;html=1;fontSize=6;" vertex="1" parent="Zzp6PQG__1YS2u12ETKb-154">
          <mxGeometry x="111" y="35" width="40" height="20" as="geometry" />
        </mxCell>
        <mxCell id="Zzp6PQG__1YS2u12ETKb-163" value="VM" style="rounded=0;whiteSpace=wrap;html=1;fontSize=6;" vertex="1" parent="Zzp6PQG__1YS2u12ETKb-154">
          <mxGeometry x="111" y="60" width="40" height="20" as="geometry" />
        </mxCell>
        <mxCell id="Zzp6PQG__1YS2u12ETKb-164" value="VMware vSAN" style="rounded=0;whiteSpace=wrap;html=1;fillColor=#e1d5e7;strokeColor=#9673a6;" vertex="1" parent="Zzp6PQG__1YS2u12ETKb-154">
          <mxGeometry x="11" y="90" width="294" height="20" as="geometry" />
        </mxCell>
        <mxCell id="Zzp6PQG__1YS2u12ETKb-165" value="Physical Host" style="rounded=0;whiteSpace=wrap;html=1;" vertex="1" parent="Zzp6PQG__1YS2u12ETKb-154">
          <mxGeometry x="10" y="150" width="140" height="20" as="geometry" />
        </mxCell>
        <mxCell id="Zzp6PQG__1YS2u12ETKb-166" value="Application" style="rounded=0;whiteSpace=wrap;html=1;fontSize=6;" vertex="1" parent="Zzp6PQG__1YS2u12ETKb-154">
          <mxGeometry x="165" y="10" width="40" height="20" as="geometry" />
        </mxCell>
        <mxCell id="Zzp6PQG__1YS2u12ETKb-167" value="OS" style="rounded=0;whiteSpace=wrap;html=1;fontSize=6;" vertex="1" parent="Zzp6PQG__1YS2u12ETKb-154">
          <mxGeometry x="165" y="35" width="40" height="20" as="geometry" />
        </mxCell>
        <mxCell id="Zzp6PQG__1YS2u12ETKb-168" value="VM" style="rounded=0;whiteSpace=wrap;html=1;fontSize=6;" vertex="1" parent="Zzp6PQG__1YS2u12ETKb-154">
          <mxGeometry x="165" y="60" width="40" height="20" as="geometry" />
        </mxCell>
        <mxCell id="Zzp6PQG__1YS2u12ETKb-169" value="Application" style="rounded=0;whiteSpace=wrap;html=1;fontSize=6;" vertex="1" parent="Zzp6PQG__1YS2u12ETKb-154">
          <mxGeometry x="215" y="10" width="40" height="20" as="geometry" />
        </mxCell>
        <mxCell id="Zzp6PQG__1YS2u12ETKb-170" value="OS" style="rounded=0;whiteSpace=wrap;html=1;fontSize=6;" vertex="1" parent="Zzp6PQG__1YS2u12ETKb-154">
          <mxGeometry x="215" y="35" width="40" height="20" as="geometry" />
        </mxCell>
        <mxCell id="Zzp6PQG__1YS2u12ETKb-171" value="VM" style="rounded=0;whiteSpace=wrap;html=1;fontSize=6;" vertex="1" parent="Zzp6PQG__1YS2u12ETKb-154">
          <mxGeometry x="215" y="60" width="40" height="20" as="geometry" />
        </mxCell>
        <mxCell id="Zzp6PQG__1YS2u12ETKb-172" value="Application" style="rounded=0;whiteSpace=wrap;html=1;fontSize=6;" vertex="1" parent="Zzp6PQG__1YS2u12ETKb-154">
          <mxGeometry x="265" y="10" width="40" height="20" as="geometry" />
        </mxCell>
        <mxCell id="Zzp6PQG__1YS2u12ETKb-173" value="OS" style="rounded=0;whiteSpace=wrap;html=1;fontSize=6;" vertex="1" parent="Zzp6PQG__1YS2u12ETKb-154">
          <mxGeometry x="265" y="35" width="40" height="20" as="geometry" />
        </mxCell>
        <mxCell id="Zzp6PQG__1YS2u12ETKb-174" value="VM" style="rounded=0;whiteSpace=wrap;html=1;fontSize=6;" vertex="1" parent="Zzp6PQG__1YS2u12ETKb-154">
          <mxGeometry x="265" y="60" width="40" height="20" as="geometry" />
        </mxCell>
        <mxCell id="Zzp6PQG__1YS2u12ETKb-175" value="Physical Host" style="rounded=0;whiteSpace=wrap;html=1;" vertex="1" parent="Zzp6PQG__1YS2u12ETKb-154">
          <mxGeometry x="165" y="150" width="140" height="20" as="geometry" />
        </mxCell>
        <mxCell id="Zzp6PQG__1YS2u12ETKb-176" value="" style="rounded=0;whiteSpace=wrap;html=1;fillColor=none;dashed=1;" vertex="1" parent="Zzp6PQG__1YS2u12ETKb-154">
          <mxGeometry width="316" height="210" as="geometry" />
        </mxCell>
        <mxCell id="Zzp6PQG__1YS2u12ETKb-177" value="VMware vSphere" style="rounded=0;whiteSpace=wrap;html=1;fillColor=#dae8fc;strokeColor=#6c8ebf;" vertex="1" parent="Zzp6PQG__1YS2u12ETKb-154">
          <mxGeometry x="11" y="119" width="294" height="20" as="geometry" />
        </mxCell>
        <mxCell id="Zzp6PQG__1YS2u12ETKb-178" value="&lt;font&gt;SSD Disk&lt;/font&gt;" style="rounded=0;whiteSpace=wrap;html=1;fontSize=8;fillColor=#ffe6cc;strokeColor=#d79b00;" vertex="1" parent="Zzp6PQG__1YS2u12ETKb-154">
          <mxGeometry x="11" y="180" width="64" height="20" as="geometry" />
        </mxCell>
        <mxCell id="Zzp6PQG__1YS2u12ETKb-179" value="&lt;font&gt;HDD/SSD Disk&lt;/font&gt;" style="rounded=0;whiteSpace=wrap;html=1;fontSize=8;fillColor=#ffe6cc;strokeColor=#d79b00;" vertex="1" parent="Zzp6PQG__1YS2u12ETKb-154">
          <mxGeometry x="85" y="180" width="64" height="20" as="geometry" />
        </mxCell>
        <mxCell id="Zzp6PQG__1YS2u12ETKb-180" value="&lt;font&gt;SSD Disk&lt;/font&gt;" style="rounded=0;whiteSpace=wrap;html=1;fontSize=8;fillColor=#ffe6cc;strokeColor=#d79b00;" vertex="1" parent="Zzp6PQG__1YS2u12ETKb-154">
          <mxGeometry x="167" y="180" width="64" height="20" as="geometry" />
        </mxCell>
        <mxCell id="Zzp6PQG__1YS2u12ETKb-181" value="&lt;font&gt;HDD/SSD Disk&lt;/font&gt;" style="rounded=0;whiteSpace=wrap;html=1;fontSize=8;fillColor=#ffe6cc;strokeColor=#d79b00;" vertex="1" parent="Zzp6PQG__1YS2u12ETKb-154">
          <mxGeometry x="241" y="180" width="64" height="20" as="geometry" />
        </mxCell>
        <mxCell id="Zzp6PQG__1YS2u12ETKb-182" value="" style="group" vertex="1" connectable="0" parent="1">
          <mxGeometry x="370" y="930" width="316" height="180" as="geometry" />
        </mxCell>
        <mxCell id="Zzp6PQG__1YS2u12ETKb-183" value="Application" style="rounded=0;whiteSpace=wrap;html=1;fontSize=6;" vertex="1" parent="Zzp6PQG__1YS2u12ETKb-182">
          <mxGeometry x="11" y="10" width="40" height="20" as="geometry" />
        </mxCell>
        <mxCell id="Zzp6PQG__1YS2u12ETKb-184" value="OS" style="rounded=0;whiteSpace=wrap;html=1;fontSize=6;" vertex="1" parent="Zzp6PQG__1YS2u12ETKb-182">
          <mxGeometry x="11" y="35" width="40" height="20" as="geometry" />
        </mxCell>
        <mxCell id="Zzp6PQG__1YS2u12ETKb-185" value="Router" style="rounded=0;whiteSpace=wrap;html=1;fontSize=6;" vertex="1" parent="Zzp6PQG__1YS2u12ETKb-182">
          <mxGeometry x="11" y="60" width="40" height="20" as="geometry" />
        </mxCell>
        <mxCell id="Zzp6PQG__1YS2u12ETKb-186" value="Application" style="rounded=0;whiteSpace=wrap;html=1;fontSize=6;" vertex="1" parent="Zzp6PQG__1YS2u12ETKb-182">
          <mxGeometry x="61" y="10" width="40" height="20" as="geometry" />
        </mxCell>
        <mxCell id="Zzp6PQG__1YS2u12ETKb-187" value="OS" style="rounded=0;whiteSpace=wrap;html=1;fontSize=6;" vertex="1" parent="Zzp6PQG__1YS2u12ETKb-182">
          <mxGeometry x="61" y="35" width="40" height="20" as="geometry" />
        </mxCell>
        <mxCell id="Zzp6PQG__1YS2u12ETKb-188" value="Switch" style="rounded=0;whiteSpace=wrap;html=1;fontSize=6;" vertex="1" parent="Zzp6PQG__1YS2u12ETKb-182">
          <mxGeometry x="61" y="60" width="40" height="20" as="geometry" />
        </mxCell>
        <mxCell id="Zzp6PQG__1YS2u12ETKb-189" value="Application" style="rounded=0;whiteSpace=wrap;html=1;fontSize=6;" vertex="1" parent="Zzp6PQG__1YS2u12ETKb-182">
          <mxGeometry x="111" y="10" width="40" height="20" as="geometry" />
        </mxCell>
        <mxCell id="Zzp6PQG__1YS2u12ETKb-190" value="OS" style="rounded=0;whiteSpace=wrap;html=1;fontSize=6;" vertex="1" parent="Zzp6PQG__1YS2u12ETKb-182">
          <mxGeometry x="111" y="35" width="40" height="20" as="geometry" />
        </mxCell>
        <mxCell id="Zzp6PQG__1YS2u12ETKb-191" value="Load Balancer" style="rounded=0;whiteSpace=wrap;html=1;fontSize=6;" vertex="1" parent="Zzp6PQG__1YS2u12ETKb-182">
          <mxGeometry x="111" y="60" width="40" height="20" as="geometry" />
        </mxCell>
        <mxCell id="Zzp6PQG__1YS2u12ETKb-192" value="VMware NSX" style="rounded=0;whiteSpace=wrap;html=1;fillColor=#e1d5e7;strokeColor=#9673a6;" vertex="1" parent="Zzp6PQG__1YS2u12ETKb-182">
          <mxGeometry x="11" y="90" width="294" height="20" as="geometry" />
        </mxCell>
        <mxCell id="Zzp6PQG__1YS2u12ETKb-193" value="Physical Host" style="rounded=0;whiteSpace=wrap;html=1;" vertex="1" parent="Zzp6PQG__1YS2u12ETKb-182">
          <mxGeometry x="10" y="150" width="140" height="20" as="geometry" />
        </mxCell>
        <mxCell id="Zzp6PQG__1YS2u12ETKb-194" value="Application" style="rounded=0;whiteSpace=wrap;html=1;fontSize=6;" vertex="1" parent="Zzp6PQG__1YS2u12ETKb-182">
          <mxGeometry x="165" y="10" width="40" height="20" as="geometry" />
        </mxCell>
        <mxCell id="Zzp6PQG__1YS2u12ETKb-195" value="OS" style="rounded=0;whiteSpace=wrap;html=1;fontSize=6;" vertex="1" parent="Zzp6PQG__1YS2u12ETKb-182">
          <mxGeometry x="165" y="35" width="40" height="20" as="geometry" />
        </mxCell>
        <mxCell id="Zzp6PQG__1YS2u12ETKb-196" value="VPN endpoint" style="rounded=0;whiteSpace=wrap;html=1;fontSize=6;" vertex="1" parent="Zzp6PQG__1YS2u12ETKb-182">
          <mxGeometry x="165" y="60" width="40" height="20" as="geometry" />
        </mxCell>
        <mxCell id="Zzp6PQG__1YS2u12ETKb-197" value="Application" style="rounded=0;whiteSpace=wrap;html=1;fontSize=6;" vertex="1" parent="Zzp6PQG__1YS2u12ETKb-182">
          <mxGeometry x="215" y="10" width="40" height="20" as="geometry" />
        </mxCell>
        <mxCell id="Zzp6PQG__1YS2u12ETKb-198" value="OS" style="rounded=0;whiteSpace=wrap;html=1;fontSize=6;" vertex="1" parent="Zzp6PQG__1YS2u12ETKb-182">
          <mxGeometry x="215" y="35" width="40" height="20" as="geometry" />
        </mxCell>
        <mxCell id="Zzp6PQG__1YS2u12ETKb-199" value="L2-L7 Firewall" style="rounded=0;whiteSpace=wrap;html=1;fontSize=6;" vertex="1" parent="Zzp6PQG__1YS2u12ETKb-182">
          <mxGeometry x="215" y="60" width="40" height="20" as="geometry" />
        </mxCell>
        <mxCell id="Zzp6PQG__1YS2u12ETKb-200" value="Application" style="rounded=0;whiteSpace=wrap;html=1;fontSize=6;" vertex="1" parent="Zzp6PQG__1YS2u12ETKb-182">
          <mxGeometry x="265" y="10" width="40" height="20" as="geometry" />
        </mxCell>
        <mxCell id="Zzp6PQG__1YS2u12ETKb-201" value="OS" style="rounded=0;whiteSpace=wrap;html=1;fontSize=6;" vertex="1" parent="Zzp6PQG__1YS2u12ETKb-182">
          <mxGeometry x="265" y="35" width="40" height="20" as="geometry" />
        </mxCell>
        <mxCell id="Zzp6PQG__1YS2u12ETKb-202" value="Bridge" style="rounded=0;whiteSpace=wrap;html=1;fontSize=6;" vertex="1" parent="Zzp6PQG__1YS2u12ETKb-182">
          <mxGeometry x="265" y="60" width="40" height="20" as="geometry" />
        </mxCell>
        <mxCell id="Zzp6PQG__1YS2u12ETKb-203" value="Physical Host" style="rounded=0;whiteSpace=wrap;html=1;" vertex="1" parent="Zzp6PQG__1YS2u12ETKb-182">
          <mxGeometry x="165" y="150" width="140" height="20" as="geometry" />
        </mxCell>
        <mxCell id="Zzp6PQG__1YS2u12ETKb-204" value="" style="rounded=0;whiteSpace=wrap;html=1;fillColor=none;dashed=1;" vertex="1" parent="Zzp6PQG__1YS2u12ETKb-182">
          <mxGeometry width="316" height="180" as="geometry" />
        </mxCell>
        <mxCell id="Zzp6PQG__1YS2u12ETKb-205" value="VMware ESXi Server" style="rounded=0;whiteSpace=wrap;html=1;" vertex="1" parent="Zzp6PQG__1YS2u12ETKb-182">
          <mxGeometry x="10" y="119" width="140" height="20" as="geometry" />
        </mxCell>
        <mxCell id="Zzp6PQG__1YS2u12ETKb-206" value="VMware ESXi Server" style="rounded=0;whiteSpace=wrap;html=1;" vertex="1" parent="Zzp6PQG__1YS2u12ETKb-182">
          <mxGeometry x="165" y="119" width="140" height="20" as="geometry" />
        </mxCell>
      </root>
    </mxGraphModel>
  </diagram>
  <diagram name="NSX-T Components (1)" id="AA08S7l0jCvKjSg2FU87">
    <mxGraphModel dx="1273" dy="717" grid="1" gridSize="10" guides="1" tooltips="1" connect="1" arrows="1" fold="1" page="1" pageScale="1" pageWidth="827" pageHeight="1169" math="0" shadow="0">
      <root>
        <mxCell id="0" />
        <mxCell id="1" parent="0" />
        <mxCell id="zXSDqkkuYzKHXKIQZk7l-1" value="NSX-T Manager Node # 1" style="rounded=0;whiteSpace=wrap;html=1;" parent="1" vertex="1">
          <mxGeometry x="360" y="120" width="160" height="20" as="geometry" />
        </mxCell>
        <mxCell id="zXSDqkkuYzKHXKIQZk7l-2" value="NSX-T Manager Node # 2" style="rounded=0;whiteSpace=wrap;html=1;" parent="1" vertex="1">
          <mxGeometry x="360" y="150" width="160" height="20" as="geometry" />
        </mxCell>
        <mxCell id="zXSDqkkuYzKHXKIQZk7l-3" value="NSX-T Manager Node # 3" style="rounded=0;whiteSpace=wrap;html=1;" parent="1" vertex="1">
          <mxGeometry x="360" y="180" width="160" height="20" as="geometry" />
        </mxCell>
        <mxCell id="zXSDqkkuYzKHXKIQZk7l-4" value="NSX-T Management Cluster" style="text;html=1;align=center;verticalAlign=middle;whiteSpace=wrap;rounded=0;fontStyle=1" parent="1" vertex="1">
          <mxGeometry x="360" y="90" width="160" height="30" as="geometry" />
        </mxCell>
        <mxCell id="zXSDqkkuYzKHXKIQZk7l-5" value="" style="rounded=0;whiteSpace=wrap;html=1;fillColor=none;strokeColor=#6c8ebf;" parent="1" vertex="1">
          <mxGeometry x="350" y="90" width="180" height="120" as="geometry" />
        </mxCell>
        <mxCell id="zXSDqkkuYzKHXKIQZk7l-6" value="UI" style="rounded=1;whiteSpace=wrap;html=1;" parent="1" vertex="1">
          <mxGeometry x="80" y="57.5" width="120" height="15" as="geometry" />
        </mxCell>
        <mxCell id="zXSDqkkuYzKHXKIQZk7l-7" value="REST API" style="rounded=1;whiteSpace=wrap;html=1;" parent="1" vertex="1">
          <mxGeometry x="80" y="80" width="120" height="15" as="geometry" />
        </mxCell>
        <mxCell id="zXSDqkkuYzKHXKIQZk7l-8" value="Cloud Management Platform (CPM)" style="rounded=1;whiteSpace=wrap;html=1;" parent="1" vertex="1">
          <mxGeometry x="80" y="102.5" width="120" height="35" as="geometry" />
        </mxCell>
        <mxCell id="zXSDqkkuYzKHXKIQZk7l-9" value="vCenter Server" style="rounded=1;whiteSpace=wrap;html=1;" parent="1" vertex="1">
          <mxGeometry x="80" y="147.5" width="120" height="15" as="geometry" />
        </mxCell>
        <mxCell id="zXSDqkkuYzKHXKIQZk7l-10" value="Cloud Service Manager (CSM)" style="rounded=1;whiteSpace=wrap;html=1;" parent="1" vertex="1">
          <mxGeometry x="80" y="172.5" width="120" height="30" as="geometry" />
        </mxCell>
        <mxCell id="zXSDqkkuYzKHXKIQZk7l-11" value="NSX Container Plug-IN (NCP)" style="rounded=1;whiteSpace=wrap;html=1;" parent="1" vertex="1">
          <mxGeometry x="80" y="212.5" width="120" height="30" as="geometry" />
        </mxCell>
        <mxCell id="zXSDqkkuYzKHXKIQZk7l-12" value="" style="shape=flexArrow;endArrow=classic;html=1;rounded=0;" parent="1" edge="1">
          <mxGeometry width="50" height="50" relative="1" as="geometry">
            <mxPoint x="260" y="149.70999999999998" as="sourcePoint" />
            <mxPoint x="340" y="149.70999999999998" as="targetPoint" />
          </mxGeometry>
        </mxCell>
        <mxCell id="zXSDqkkuYzKHXKIQZk7l-15" value="" style="endArrow=classic;html=1;rounded=0;exitX=1;exitY=0.5;exitDx=0;exitDy=0;" parent="1" source="zXSDqkkuYzKHXKIQZk7l-6" edge="1">
          <mxGeometry width="50" height="50" relative="1" as="geometry">
            <mxPoint x="210" y="70" as="sourcePoint" />
            <mxPoint x="230" y="65" as="targetPoint" />
          </mxGeometry>
        </mxCell>
        <mxCell id="zXSDqkkuYzKHXKIQZk7l-16" value="" style="endArrow=classic;html=1;rounded=0;exitX=1;exitY=0.5;exitDx=0;exitDy=0;" parent="1" edge="1">
          <mxGeometry width="50" height="50" relative="1" as="geometry">
            <mxPoint x="200" y="87.32999999999998" as="sourcePoint" />
            <mxPoint x="230" y="87.32999999999998" as="targetPoint" />
          </mxGeometry>
        </mxCell>
        <mxCell id="zXSDqkkuYzKHXKIQZk7l-17" value="" style="endArrow=classic;html=1;rounded=0;exitX=1;exitY=0.5;exitDx=0;exitDy=0;" parent="1" edge="1">
          <mxGeometry width="50" height="50" relative="1" as="geometry">
            <mxPoint x="200" y="119.67000000000002" as="sourcePoint" />
            <mxPoint x="230" y="119.67000000000002" as="targetPoint" />
          </mxGeometry>
        </mxCell>
        <mxCell id="zXSDqkkuYzKHXKIQZk7l-18" value="" style="endArrow=classic;html=1;rounded=0;exitX=1;exitY=0.5;exitDx=0;exitDy=0;" parent="1" edge="1">
          <mxGeometry width="50" height="50" relative="1" as="geometry">
            <mxPoint x="200" y="154.82999999999998" as="sourcePoint" />
            <mxPoint x="230" y="154.82999999999998" as="targetPoint" />
          </mxGeometry>
        </mxCell>
        <mxCell id="zXSDqkkuYzKHXKIQZk7l-19" value="" style="endArrow=classic;html=1;rounded=0;exitX=1;exitY=0.5;exitDx=0;exitDy=0;" parent="1" edge="1">
          <mxGeometry width="50" height="50" relative="1" as="geometry">
            <mxPoint x="200" y="187.32999999999998" as="sourcePoint" />
            <mxPoint x="230" y="187.32999999999998" as="targetPoint" />
          </mxGeometry>
        </mxCell>
        <mxCell id="zXSDqkkuYzKHXKIQZk7l-20" value="" style="endArrow=classic;html=1;rounded=0;exitX=1;exitY=0.5;exitDx=0;exitDy=0;" parent="1" edge="1">
          <mxGeometry width="50" height="50" relative="1" as="geometry">
            <mxPoint x="200" y="227.32999999999998" as="sourcePoint" />
            <mxPoint x="230" y="227.32999999999998" as="targetPoint" />
          </mxGeometry>
        </mxCell>
        <mxCell id="zXSDqkkuYzKHXKIQZk7l-21" value="" style="shape=curlyBracket;whiteSpace=wrap;html=1;rounded=1;flipH=1;labelPosition=right;verticalLabelPosition=middle;align=left;verticalAlign=middle;" parent="1" vertex="1">
          <mxGeometry x="230" y="50" width="30" height="200" as="geometry" />
        </mxCell>
        <mxCell id="zXSDqkkuYzKHXKIQZk7l-66" value="" style="endArrow=none;dashed=1;html=1;dashPattern=1 3;strokeWidth=2;rounded=0;" parent="1" edge="1">
          <mxGeometry width="50" height="50" relative="1" as="geometry">
            <mxPoint x="60" y="270" as="sourcePoint" />
            <mxPoint x="580" y="270" as="targetPoint" />
          </mxGeometry>
        </mxCell>
        <mxCell id="zXSDqkkuYzKHXKIQZk7l-67" value="&lt;b&gt;Data Plane&lt;/b&gt;" style="text;html=1;align=center;verticalAlign=middle;whiteSpace=wrap;rounded=0;" parent="1" vertex="1">
          <mxGeometry x="40" y="270" width="90" height="30" as="geometry" />
        </mxCell>
        <mxCell id="zXSDqkkuYzKHXKIQZk7l-68" value="&lt;b&gt;Control Plane&lt;/b&gt;" style="text;html=1;align=center;verticalAlign=middle;whiteSpace=wrap;rounded=0;" parent="1" vertex="1">
          <mxGeometry x="40" y="20" width="90" height="30" as="geometry" />
        </mxCell>
        <mxCell id="zXSDqkkuYzKHXKIQZk7l-69" value="NSX-T Manager Node # 1" style="rounded=0;whiteSpace=wrap;html=1;" parent="1" vertex="1">
          <mxGeometry x="390" y="570" width="160" height="20" as="geometry" />
        </mxCell>
        <mxCell id="zXSDqkkuYzKHXKIQZk7l-70" value="NSX-T Manager Node # 2" style="rounded=0;whiteSpace=wrap;html=1;" parent="1" vertex="1">
          <mxGeometry x="390" y="600" width="160" height="20" as="geometry" />
        </mxCell>
        <mxCell id="zXSDqkkuYzKHXKIQZk7l-71" value="NSX-T Manager Node # 3" style="rounded=0;whiteSpace=wrap;html=1;" parent="1" vertex="1">
          <mxGeometry x="390" y="630" width="160" height="20" as="geometry" />
        </mxCell>
        <mxCell id="zXSDqkkuYzKHXKIQZk7l-72" value="NSX-T Management Cluster" style="text;html=1;align=center;verticalAlign=middle;whiteSpace=wrap;rounded=0;fontStyle=1" parent="1" vertex="1">
          <mxGeometry x="390" y="540" width="160" height="30" as="geometry" />
        </mxCell>
        <mxCell id="zXSDqkkuYzKHXKIQZk7l-73" value="" style="rounded=0;whiteSpace=wrap;html=1;fillColor=none;strokeColor=#6c8ebf;" parent="1" vertex="1">
          <mxGeometry x="380" y="540" width="180" height="120" as="geometry" />
        </mxCell>
        <mxCell id="zXSDqkkuYzKHXKIQZk7l-74" value="" style="shape=flexArrow;endArrow=classic;html=1;rounded=0;fillColor=#f8cecc;strokeColor=#b85450;" parent="1" edge="1">
          <mxGeometry width="50" height="50" relative="1" as="geometry">
            <mxPoint x="600" y="620" as="sourcePoint" />
            <mxPoint x="550" y="580" as="targetPoint" />
          </mxGeometry>
        </mxCell>
        <mxCell id="zXSDqkkuYzKHXKIQZk7l-75" value="Leader Manager" style="text;html=1;align=center;verticalAlign=middle;whiteSpace=wrap;rounded=0;fontStyle=1" parent="1" vertex="1">
          <mxGeometry x="600" y="605" width="60" height="30" as="geometry" />
        </mxCell>
        <mxCell id="zXSDqkkuYzKHXKIQZk7l-76" value="10.10.10.11/24" style="text;html=1;align=center;verticalAlign=middle;whiteSpace=wrap;rounded=0;" parent="1" vertex="1">
          <mxGeometry x="305" y="565" width="60" height="30" as="geometry" />
        </mxCell>
        <mxCell id="zXSDqkkuYzKHXKIQZk7l-77" value="10.10.10.12/24" style="text;html=1;align=center;verticalAlign=middle;whiteSpace=wrap;rounded=0;" parent="1" vertex="1">
          <mxGeometry x="305" y="595" width="60" height="30" as="geometry" />
        </mxCell>
        <mxCell id="zXSDqkkuYzKHXKIQZk7l-78" value="10.10.10.13/24" style="text;html=1;align=center;verticalAlign=middle;whiteSpace=wrap;rounded=0;" parent="1" vertex="1">
          <mxGeometry x="305" y="625" width="60" height="30" as="geometry" />
        </mxCell>
        <mxCell id="zXSDqkkuYzKHXKIQZk7l-79" value="&lt;br&gt;&lt;span style=&quot;color: rgb(0, 0, 0); font-family: Helvetica; font-size: 12px; font-style: normal; font-variant-ligatures: normal; font-variant-caps: normal; font-weight: 400; letter-spacing: normal; orphans: 2; text-align: center; text-indent: 0px; text-transform: none; widows: 2; word-spacing: 0px; -webkit-text-stroke-width: 0px; white-space: normal; text-decoration-thickness: initial; text-decoration-style: initial; text-decoration-color: initial; float: none; background-color: light-dark(#ffffff, var(--ge-dark-color, #121212)); display: inline !important;&quot;&gt;10.10.10.10/24&lt;/span&gt;&lt;div&gt;&lt;br&gt;&lt;/div&gt;" style="rounded=1;whiteSpace=wrap;html=1;" parent="1" vertex="1">
          <mxGeometry x="161.5" y="590" width="90" height="30" as="geometry" />
        </mxCell>
        <mxCell id="zXSDqkkuYzKHXKIQZk7l-80" value="" style="endArrow=classic;html=1;rounded=0;fillColor=#d5e8d4;strokeColor=#82b366;exitX=1;exitY=0.5;exitDx=0;exitDy=0;" parent="1" source="zXSDqkkuYzKHXKIQZk7l-79" edge="1">
          <mxGeometry width="50" height="50" relative="1" as="geometry">
            <mxPoint x="251.5" y="605" as="sourcePoint" />
            <mxPoint x="290" y="585" as="targetPoint" />
          </mxGeometry>
        </mxCell>
        <mxCell id="zXSDqkkuYzKHXKIQZk7l-81" value="" style="endArrow=classic;html=1;rounded=0;exitX=1;exitY=0.5;exitDx=0;exitDy=0;fillColor=#ffe6cc;strokeColor=#d79b00;" parent="1" source="zXSDqkkuYzKHXKIQZk7l-79" edge="1">
          <mxGeometry width="50" height="50" relative="1" as="geometry">
            <mxPoint x="260" y="615" as="sourcePoint" />
            <mxPoint x="290" y="605" as="targetPoint" />
          </mxGeometry>
        </mxCell>
        <mxCell id="zXSDqkkuYzKHXKIQZk7l-82" value="" style="endArrow=classic;html=1;rounded=0;exitX=1;exitY=0.5;exitDx=0;exitDy=0;fillColor=#ffe6cc;strokeColor=#d79b00;" parent="1" source="zXSDqkkuYzKHXKIQZk7l-79" edge="1">
          <mxGeometry width="50" height="50" relative="1" as="geometry">
            <mxPoint x="270" y="630" as="sourcePoint" />
            <mxPoint x="290" y="635" as="targetPoint" />
          </mxGeometry>
        </mxCell>
        <mxCell id="zXSDqkkuYzKHXKIQZk7l-83" value="" style="endArrow=classic;html=1;rounded=0;" parent="1" edge="1">
          <mxGeometry width="50" height="50" relative="1" as="geometry">
            <mxPoint x="130" y="605" as="sourcePoint" />
            <mxPoint x="160" y="605" as="targetPoint" />
          </mxGeometry>
        </mxCell>
        <mxCell id="zXSDqkkuYzKHXKIQZk7l-85" value="UI" style="rounded=1;whiteSpace=wrap;html=1;" parent="1" vertex="1">
          <mxGeometry x="69" y="586.25" width="61" height="15" as="geometry" />
        </mxCell>
        <mxCell id="zXSDqkkuYzKHXKIQZk7l-86" value="REST API" style="rounded=1;whiteSpace=wrap;html=1;" parent="1" vertex="1">
          <mxGeometry x="69" y="608.75" width="61" height="15" as="geometry" />
        </mxCell>
        <mxCell id="zXSDqkkuYzKHXKIQZk7l-87" value="NSX-T Manager Node # 1" style="rounded=0;whiteSpace=wrap;html=1;" parent="1" vertex="1">
          <mxGeometry x="390" y="700" width="160" height="20" as="geometry" />
        </mxCell>
        <mxCell id="zXSDqkkuYzKHXKIQZk7l-88" value="NSX-T Manager Node # 2" style="rounded=0;whiteSpace=wrap;html=1;" parent="1" vertex="1">
          <mxGeometry x="390" y="730" width="160" height="20" as="geometry" />
        </mxCell>
        <mxCell id="zXSDqkkuYzKHXKIQZk7l-89" value="NSX-T Manager Node # 3" style="rounded=0;whiteSpace=wrap;html=1;" parent="1" vertex="1">
          <mxGeometry x="390" y="760" width="160" height="20" as="geometry" />
        </mxCell>
        <mxCell id="zXSDqkkuYzKHXKIQZk7l-90" value="NSX-T Management Cluster" style="text;html=1;align=center;verticalAlign=middle;whiteSpace=wrap;rounded=0;fontStyle=1" parent="1" vertex="1">
          <mxGeometry x="390" y="670" width="160" height="30" as="geometry" />
        </mxCell>
        <mxCell id="zXSDqkkuYzKHXKIQZk7l-91" value="" style="rounded=0;whiteSpace=wrap;html=1;fillColor=none;strokeColor=#6c8ebf;" parent="1" vertex="1">
          <mxGeometry x="380" y="670" width="180" height="120" as="geometry" />
        </mxCell>
        <mxCell id="zXSDqkkuYzKHXKIQZk7l-94" value="10.10.10.11/24" style="text;html=1;align=center;verticalAlign=middle;whiteSpace=wrap;rounded=0;" parent="1" vertex="1">
          <mxGeometry x="305" y="695" width="60" height="30" as="geometry" />
        </mxCell>
        <mxCell id="zXSDqkkuYzKHXKIQZk7l-95" value="10.10.10.12/24" style="text;html=1;align=center;verticalAlign=middle;whiteSpace=wrap;rounded=0;" parent="1" vertex="1">
          <mxGeometry x="305" y="725" width="60" height="30" as="geometry" />
        </mxCell>
        <mxCell id="zXSDqkkuYzKHXKIQZk7l-96" value="10.10.10.13/24" style="text;html=1;align=center;verticalAlign=middle;whiteSpace=wrap;rounded=0;" parent="1" vertex="1">
          <mxGeometry x="305" y="755" width="60" height="30" as="geometry" />
        </mxCell>
        <mxCell id="zXSDqkkuYzKHXKIQZk7l-98" value="" style="endArrow=classic;html=1;rounded=0;fillColor=#d5e8d4;strokeColor=#82b366;exitX=1;exitY=0.5;exitDx=0;exitDy=0;" parent="1" edge="1">
          <mxGeometry width="50" height="50" relative="1" as="geometry">
            <mxPoint x="251.5" y="735" as="sourcePoint" />
            <mxPoint x="290" y="715" as="targetPoint" />
          </mxGeometry>
        </mxCell>
        <mxCell id="zXSDqkkuYzKHXKIQZk7l-99" value="" style="endArrow=classic;html=1;rounded=0;exitX=1;exitY=0.5;exitDx=0;exitDy=0;fillColor=#ffe6cc;strokeColor=#d79b00;" parent="1" edge="1">
          <mxGeometry width="50" height="50" relative="1" as="geometry">
            <mxPoint x="251.5" y="735" as="sourcePoint" />
            <mxPoint x="290" y="735" as="targetPoint" />
          </mxGeometry>
        </mxCell>
        <mxCell id="zXSDqkkuYzKHXKIQZk7l-100" value="" style="endArrow=classic;html=1;rounded=0;exitX=1;exitY=0.5;exitDx=0;exitDy=0;fillColor=#ffe6cc;strokeColor=#d79b00;" parent="1" edge="1">
          <mxGeometry width="50" height="50" relative="1" as="geometry">
            <mxPoint x="251.5" y="735" as="sourcePoint" />
            <mxPoint x="290" y="765" as="targetPoint" />
          </mxGeometry>
        </mxCell>
        <mxCell id="zXSDqkkuYzKHXKIQZk7l-101" value="" style="endArrow=classic;html=1;rounded=0;" parent="1" edge="1">
          <mxGeometry width="50" height="50" relative="1" as="geometry">
            <mxPoint x="130" y="735" as="sourcePoint" />
            <mxPoint x="160" y="735" as="targetPoint" />
          </mxGeometry>
        </mxCell>
        <mxCell id="zXSDqkkuYzKHXKIQZk7l-102" value="UI" style="rounded=1;whiteSpace=wrap;html=1;" parent="1" vertex="1">
          <mxGeometry x="69" y="716.25" width="61" height="15" as="geometry" />
        </mxCell>
        <mxCell id="zXSDqkkuYzKHXKIQZk7l-103" value="REST API" style="rounded=1;whiteSpace=wrap;html=1;" parent="1" vertex="1">
          <mxGeometry x="69" y="738.75" width="61" height="15" as="geometry" />
        </mxCell>
        <mxCell id="zXSDqkkuYzKHXKIQZk7l-104" value="&lt;span style=&quot;color: rgb(0, 0, 0); text-wrap: wrap; float: none; display: inline !important;&quot;&gt;10.10.10.10/24&lt;/span&gt;" style="sketch=0;outlineConnect=0;fontColor=#232F3E;gradientColor=none;fillColor=#8C4FFF;strokeColor=none;dashed=0;verticalLabelPosition=bottom;verticalAlign=top;align=center;html=1;fontSize=12;fontStyle=0;aspect=fixed;pointerEvents=1;shape=mxgraph.aws4.network_load_balancer;" parent="1" vertex="1">
          <mxGeometry x="173.5" y="695" width="78" height="78" as="geometry" />
        </mxCell>
        <mxCell id="-Ga4iXH8dk7I9-dKVxCx-1" value="" style="group" vertex="1" connectable="0" parent="1">
          <mxGeometry x="80" y="300" width="250" height="210" as="geometry" />
        </mxCell>
        <mxCell id="zXSDqkkuYzKHXKIQZk7l-39" value="" style="group" parent="-Ga4iXH8dk7I9-dKVxCx-1" vertex="1" connectable="0">
          <mxGeometry x="20" y="40" width="230" height="170" as="geometry" />
        </mxCell>
        <mxCell id="zXSDqkkuYzKHXKIQZk7l-35" value="VM(s)" style="rounded=0;whiteSpace=wrap;html=1;fontSize=8;" parent="zXSDqkkuYzKHXKIQZk7l-39" vertex="1">
          <mxGeometry x="5" y="30" width="50" height="10" as="geometry" />
        </mxCell>
        <mxCell id="zXSDqkkuYzKHXKIQZk7l-36" value="Container(s)" style="rounded=0;whiteSpace=wrap;html=1;fontSize=8;" parent="zXSDqkkuYzKHXKIQZk7l-39" vertex="1">
          <mxGeometry x="5" y="50" width="50" height="10" as="geometry" />
        </mxCell>
        <mxCell id="zXSDqkkuYzKHXKIQZk7l-37" value="ESXi Host" style="text;html=1;align=center;verticalAlign=middle;whiteSpace=wrap;rounded=0;" parent="zXSDqkkuYzKHXKIQZk7l-39" vertex="1">
          <mxGeometry width="60" height="30" as="geometry" />
        </mxCell>
        <mxCell id="zXSDqkkuYzKHXKIQZk7l-38" value="" style="rounded=0;whiteSpace=wrap;html=1;fillColor=none;" parent="zXSDqkkuYzKHXKIQZk7l-39" vertex="1">
          <mxGeometry y="5" width="65" height="60" as="geometry" />
        </mxCell>
        <mxCell id="zXSDqkkuYzKHXKIQZk7l-45" value="" style="group" parent="-Ga4iXH8dk7I9-dKVxCx-1" vertex="1" connectable="0">
          <mxGeometry x="90" y="40" width="65" height="65" as="geometry" />
        </mxCell>
        <mxCell id="zXSDqkkuYzKHXKIQZk7l-41" value="VM(s)" style="rounded=0;whiteSpace=wrap;html=1;fontSize=8;" parent="zXSDqkkuYzKHXKIQZk7l-45" vertex="1">
          <mxGeometry x="5" y="30" width="50" height="10" as="geometry" />
        </mxCell>
        <mxCell id="zXSDqkkuYzKHXKIQZk7l-42" value="Container(s)" style="rounded=0;whiteSpace=wrap;html=1;fontSize=8;" parent="zXSDqkkuYzKHXKIQZk7l-45" vertex="1">
          <mxGeometry x="5" y="50" width="50" height="10" as="geometry" />
        </mxCell>
        <mxCell id="zXSDqkkuYzKHXKIQZk7l-43" value="KVM Host" style="text;html=1;align=center;verticalAlign=middle;whiteSpace=wrap;rounded=0;" parent="zXSDqkkuYzKHXKIQZk7l-45" vertex="1">
          <mxGeometry width="60" height="30" as="geometry" />
        </mxCell>
        <mxCell id="zXSDqkkuYzKHXKIQZk7l-44" value="" style="rounded=0;whiteSpace=wrap;html=1;fillColor=none;" parent="zXSDqkkuYzKHXKIQZk7l-45" vertex="1">
          <mxGeometry y="5" width="65" height="60" as="geometry" />
        </mxCell>
        <mxCell id="zXSDqkkuYzKHXKIQZk7l-50" value="Bare Metal Server" style="rounded=0;whiteSpace=wrap;html=1;fillColor=none;" parent="-Ga4iXH8dk7I9-dKVxCx-1" vertex="1">
          <mxGeometry x="160" y="45" width="65" height="60" as="geometry" />
        </mxCell>
        <mxCell id="zXSDqkkuYzKHXKIQZk7l-51" value="Host Transport Nodes" style="text;html=1;align=center;verticalAlign=middle;whiteSpace=wrap;rounded=0;" parent="-Ga4iXH8dk7I9-dKVxCx-1" vertex="1">
          <mxGeometry x="59" y="20" width="127" height="30" as="geometry" />
        </mxCell>
        <mxCell id="zXSDqkkuYzKHXKIQZk7l-52" value="" style="rounded=0;whiteSpace=wrap;html=1;fillColor=none;strokeColor=#82b366;" parent="-Ga4iXH8dk7I9-dKVxCx-1" vertex="1">
          <mxGeometry x="10" y="25" width="230" height="95" as="geometry" />
        </mxCell>
        <mxCell id="zXSDqkkuYzKHXKIQZk7l-53" value="" style="rounded=0;whiteSpace=wrap;html=1;fillColor=none;strokeColor=#82b366;" parent="-Ga4iXH8dk7I9-dKVxCx-1" vertex="1">
          <mxGeometry x="11.5" y="130" width="230" height="70" as="geometry" />
        </mxCell>
        <mxCell id="zXSDqkkuYzKHXKIQZk7l-54" value="Bare Metal VM" style="rounded=0;whiteSpace=wrap;html=1;" parent="-Ga4iXH8dk7I9-dKVxCx-1" vertex="1">
          <mxGeometry x="20" y="160" width="100" height="30" as="geometry" />
        </mxCell>
        <mxCell id="zXSDqkkuYzKHXKIQZk7l-55" value="Edge Transport Nodes" style="text;html=1;align=center;verticalAlign=middle;whiteSpace=wrap;rounded=0;" parent="-Ga4iXH8dk7I9-dKVxCx-1" vertex="1">
          <mxGeometry x="63" y="130" width="127" height="30" as="geometry" />
        </mxCell>
        <mxCell id="zXSDqkkuYzKHXKIQZk7l-56" value="Edge VM" style="rounded=0;whiteSpace=wrap;html=1;" parent="-Ga4iXH8dk7I9-dKVxCx-1" vertex="1">
          <mxGeometry x="125" y="160" width="100" height="30" as="geometry" />
        </mxCell>
        <mxCell id="zXSDqkkuYzKHXKIQZk7l-62" value="" style="rounded=0;whiteSpace=wrap;html=1;fillColor=none;strokeColor=#9673a6;" parent="-Ga4iXH8dk7I9-dKVxCx-1" vertex="1">
          <mxGeometry width="250" height="210" as="geometry" />
        </mxCell>
        <mxCell id="zXSDqkkuYzKHXKIQZk7l-63" value="Private Cloud(s)" style="text;html=1;align=center;verticalAlign=middle;whiteSpace=wrap;rounded=0;" parent="-Ga4iXH8dk7I9-dKVxCx-1" vertex="1">
          <mxGeometry x="37.5" width="170" height="30" as="geometry" />
        </mxCell>
        <mxCell id="-Ga4iXH8dk7I9-dKVxCx-2" value="" style="group" vertex="1" connectable="0" parent="1">
          <mxGeometry x="340" y="300" width="220" height="210" as="geometry" />
        </mxCell>
        <mxCell id="zXSDqkkuYzKHXKIQZk7l-57" value="Linux VM(s)" style="rounded=0;whiteSpace=wrap;html=1;" parent="-Ga4iXH8dk7I9-dKVxCx-2" vertex="1">
          <mxGeometry x="20" y="55" width="80" height="40" as="geometry" />
        </mxCell>
        <mxCell id="zXSDqkkuYzKHXKIQZk7l-58" value="Windows VM(s)" style="rounded=0;whiteSpace=wrap;html=1;" parent="-Ga4iXH8dk7I9-dKVxCx-2" vertex="1">
          <mxGeometry x="115" y="55" width="80" height="40" as="geometry" />
        </mxCell>
        <mxCell id="zXSDqkkuYzKHXKIQZk7l-59" value="" style="rounded=0;whiteSpace=wrap;html=1;fillColor=none;strokeColor=#82b366;" parent="-Ga4iXH8dk7I9-dKVxCx-2" vertex="1">
          <mxGeometry x="10" y="25" width="200" height="80" as="geometry" />
        </mxCell>
        <mxCell id="zXSDqkkuYzKHXKIQZk7l-60" value="VM(s)" style="text;html=1;align=center;verticalAlign=middle;whiteSpace=wrap;rounded=0;" parent="-Ga4iXH8dk7I9-dKVxCx-2" vertex="1">
          <mxGeometry x="80" y="25" width="60" height="30" as="geometry" />
        </mxCell>
        <mxCell id="zXSDqkkuYzKHXKIQZk7l-61" value="NSX Cloud Gateway" style="rounded=0;whiteSpace=wrap;html=1;" parent="-Ga4iXH8dk7I9-dKVxCx-2" vertex="1">
          <mxGeometry x="20" y="130" width="180" height="60" as="geometry" />
        </mxCell>
        <mxCell id="zXSDqkkuYzKHXKIQZk7l-64" value="Public Cloud(s)" style="text;html=1;align=center;verticalAlign=middle;whiteSpace=wrap;rounded=0;" parent="-Ga4iXH8dk7I9-dKVxCx-2" vertex="1">
          <mxGeometry x="25" width="170" height="30" as="geometry" />
        </mxCell>
        <mxCell id="zXSDqkkuYzKHXKIQZk7l-65" value="" style="rounded=0;whiteSpace=wrap;html=1;fillColor=none;strokeColor=#9673a6;" parent="-Ga4iXH8dk7I9-dKVxCx-2" vertex="1">
          <mxGeometry width="220" height="210" as="geometry" />
        </mxCell>
      </root>
    </mxGraphModel>
  </diagram>
  <diagram id="kvda_U1-wRpeX2RRAKb9" name="NSX-T Components (2)">
    <mxGraphModel dx="1273" dy="717" grid="1" gridSize="10" guides="1" tooltips="1" connect="1" arrows="1" fold="1" page="1" pageScale="1" pageWidth="827" pageHeight="1169" math="0" shadow="0">
      <root>
        <mxCell id="0" />
        <mxCell id="1" parent="0" />
        <mxCell id="au6G4QNOyBElbajrbixK-1" value="Policy" style="rounded=1;whiteSpace=wrap;html=1;" parent="1" vertex="1">
          <mxGeometry x="94" y="30" width="41" height="30" as="geometry" />
        </mxCell>
        <mxCell id="au6G4QNOyBElbajrbixK-2" value="Policy" style="rounded=1;whiteSpace=wrap;html=1;" parent="1" vertex="1">
          <mxGeometry x="94" y="90" width="41" height="30" as="geometry" />
        </mxCell>
        <mxCell id="au6G4QNOyBElbajrbixK-3" value="Policy" style="rounded=1;whiteSpace=wrap;html=1;" parent="1" vertex="1">
          <mxGeometry x="94" y="150" width="41" height="30" as="geometry" />
        </mxCell>
        <mxCell id="au6G4QNOyBElbajrbixK-4" value="Manager" style="rounded=1;whiteSpace=wrap;html=1;" parent="1" vertex="1">
          <mxGeometry x="165" y="30" width="55" height="30" as="geometry" />
        </mxCell>
        <mxCell id="au6G4QNOyBElbajrbixK-5" value="Manager" style="rounded=1;whiteSpace=wrap;html=1;" parent="1" vertex="1">
          <mxGeometry x="165" y="90" width="55" height="30" as="geometry" />
        </mxCell>
        <mxCell id="au6G4QNOyBElbajrbixK-6" value="Manager" style="rounded=1;whiteSpace=wrap;html=1;" parent="1" vertex="1">
          <mxGeometry x="165" y="150" width="55" height="30" as="geometry" />
        </mxCell>
        <mxCell id="au6G4QNOyBElbajrbixK-7" value="Central Control Plane (CCP)" style="rounded=1;whiteSpace=wrap;html=1;" parent="1" vertex="1">
          <mxGeometry x="260" y="30" width="90" height="30" as="geometry" />
        </mxCell>
        <mxCell id="au6G4QNOyBElbajrbixK-8" value="Central Control Plane (CCP)" style="rounded=1;whiteSpace=wrap;html=1;" parent="1" vertex="1">
          <mxGeometry x="260" y="90" width="90" height="30" as="geometry" />
        </mxCell>
        <mxCell id="au6G4QNOyBElbajrbixK-9" value="Central Control Plane (CCP)" style="rounded=1;whiteSpace=wrap;html=1;" parent="1" vertex="1">
          <mxGeometry x="260" y="150" width="90" height="30" as="geometry" />
        </mxCell>
        <mxCell id="au6G4QNOyBElbajrbixK-10" value="CorfuDB" style="rounded=1;whiteSpace=wrap;html=1;" parent="1" vertex="1">
          <mxGeometry x="385" y="30" width="50" height="30" as="geometry" />
        </mxCell>
        <mxCell id="au6G4QNOyBElbajrbixK-11" value="CorfuDB" style="rounded=1;whiteSpace=wrap;html=1;" parent="1" vertex="1">
          <mxGeometry x="385" y="90" width="50" height="30" as="geometry" />
        </mxCell>
        <mxCell id="au6G4QNOyBElbajrbixK-12" value="CorfuDB" style="rounded=1;whiteSpace=wrap;html=1;" parent="1" vertex="1">
          <mxGeometry x="385" y="150" width="50" height="30" as="geometry" />
        </mxCell>
        <mxCell id="au6G4QNOyBElbajrbixK-13" value="" style="rounded=0;whiteSpace=wrap;html=1;fillColor=none;" parent="1" vertex="1">
          <mxGeometry x="70" y="20" width="380" height="50" as="geometry" />
        </mxCell>
        <mxCell id="au6G4QNOyBElbajrbixK-14" value="" style="rounded=0;whiteSpace=wrap;html=1;fillColor=none;" parent="1" vertex="1">
          <mxGeometry x="70" y="80" width="380" height="50" as="geometry" />
        </mxCell>
        <mxCell id="au6G4QNOyBElbajrbixK-15" value="" style="rounded=0;whiteSpace=wrap;html=1;fillColor=none;" parent="1" vertex="1">
          <mxGeometry x="70" y="140" width="380" height="50" as="geometry" />
        </mxCell>
        <mxCell id="au6G4QNOyBElbajrbixK-16" value="&lt;b&gt;Node 1&lt;/b&gt;" style="text;html=1;align=center;verticalAlign=middle;whiteSpace=wrap;rounded=0;rotation=-90;" parent="1" vertex="1">
          <mxGeometry x="54" y="35" width="52" height="20" as="geometry" />
        </mxCell>
        <mxCell id="au6G4QNOyBElbajrbixK-17" value="&lt;b&gt;Node 2&lt;/b&gt;" style="text;html=1;align=center;verticalAlign=middle;whiteSpace=wrap;rounded=0;rotation=-90;" parent="1" vertex="1">
          <mxGeometry x="54" y="95" width="52" height="20" as="geometry" />
        </mxCell>
        <mxCell id="au6G4QNOyBElbajrbixK-18" value="&lt;b&gt;Node 3&lt;/b&gt;" style="text;html=1;align=center;verticalAlign=middle;whiteSpace=wrap;rounded=0;rotation=-90;" parent="1" vertex="1">
          <mxGeometry x="54" y="155" width="52" height="20" as="geometry" />
        </mxCell>
        <mxCell id="au6G4QNOyBElbajrbixK-19" value="" style="shape=curlyBracket;whiteSpace=wrap;html=1;rounded=1;flipH=1;labelPosition=right;verticalLabelPosition=middle;align=left;verticalAlign=middle;rotation=90;" parent="1" vertex="1">
          <mxGeometry x="150" y="140" width="20" height="140" as="geometry" />
        </mxCell>
        <mxCell id="au6G4QNOyBElbajrbixK-20" value="" style="shape=curlyBracket;whiteSpace=wrap;html=1;rounded=1;flipH=1;labelPosition=right;verticalLabelPosition=middle;align=left;verticalAlign=middle;rotation=90;" parent="1" vertex="1">
          <mxGeometry x="295" y="155" width="20" height="110" as="geometry" />
        </mxCell>
        <mxCell id="au6G4QNOyBElbajrbixK-21" value="" style="shape=curlyBracket;whiteSpace=wrap;html=1;rounded=1;flipH=1;labelPosition=right;verticalLabelPosition=middle;align=left;verticalAlign=middle;rotation=90;" parent="1" vertex="1">
          <mxGeometry x="402.5" y="182.5" width="20" height="55" as="geometry" />
        </mxCell>
        <mxCell id="au6G4QNOyBElbajrbixK-22" value="Management Plane" style="text;html=1;align=center;verticalAlign=middle;whiteSpace=wrap;rounded=0;" parent="1" vertex="1">
          <mxGeometry x="94" y="220" width="135" height="30" as="geometry" />
        </mxCell>
        <mxCell id="au6G4QNOyBElbajrbixK-23" value="Control Plane" style="text;html=1;align=center;verticalAlign=middle;whiteSpace=wrap;rounded=0;" parent="1" vertex="1">
          <mxGeometry x="229" y="220" width="135" height="30" as="geometry" />
        </mxCell>
        <mxCell id="au6G4QNOyBElbajrbixK-24" value="Distributed Database" style="text;html=1;align=center;verticalAlign=middle;whiteSpace=wrap;rounded=0;" parent="1" vertex="1">
          <mxGeometry x="335" y="220" width="135" height="30" as="geometry" />
        </mxCell>
        <mxCell id="au6G4QNOyBElbajrbixK-25" value="" style="shape=curlyBracket;whiteSpace=wrap;html=1;rounded=1;labelPosition=left;verticalLabelPosition=middle;align=right;verticalAlign=middle;" parent="1" vertex="1">
          <mxGeometry x="49" y="10" width="20" height="190" as="geometry" />
        </mxCell>
        <mxCell id="au6G4QNOyBElbajrbixK-26" value="NSX-T Manager Cluster" style="text;html=1;align=center;verticalAlign=middle;whiteSpace=wrap;rounded=0;rotation=-90;" parent="1" vertex="1">
          <mxGeometry x="-40" y="90" width="151" height="30" as="geometry" />
        </mxCell>
        <mxCell id="au6G4QNOyBElbajrbixK-27" value="Policy" style="rounded=1;whiteSpace=wrap;html=1;" parent="1" vertex="1">
          <mxGeometry x="500" y="137.5" width="80" height="40" as="geometry" />
        </mxCell>
        <mxCell id="au6G4QNOyBElbajrbixK-28" value="Manager GUI" style="rounded=1;whiteSpace=wrap;html=1;" parent="1" vertex="1">
          <mxGeometry x="500" y="210" width="80" height="40" as="geometry" />
        </mxCell>
        <mxCell id="au6G4QNOyBElbajrbixK-29" value="Proton" style="rounded=1;whiteSpace=wrap;html=1;" parent="1" vertex="1">
          <mxGeometry x="610" y="137.5" width="80" height="40" as="geometry" />
        </mxCell>
        <mxCell id="au6G4QNOyBElbajrbixK-30" value="" style="edgeStyle=orthogonalEdgeStyle;rounded=0;orthogonalLoop=1;jettySize=auto;html=1;" parent="1" source="au6G4QNOyBElbajrbixK-31" target="au6G4QNOyBElbajrbixK-28" edge="1">
          <mxGeometry relative="1" as="geometry" />
        </mxCell>
        <mxCell id="au6G4QNOyBElbajrbixK-31" value="CorfuDB" style="rounded=1;whiteSpace=wrap;html=1;" parent="1" vertex="1">
          <mxGeometry x="610" y="210" width="80" height="40" as="geometry" />
        </mxCell>
        <mxCell id="au6G4QNOyBElbajrbixK-32" value="" style="endArrow=classic;html=1;rounded=0;entryX=0.5;entryY=0;entryDx=0;entryDy=0;exitX=0.5;exitY=1;exitDx=0;exitDy=0;" parent="1" source="au6G4QNOyBElbajrbixK-41" target="au6G4QNOyBElbajrbixK-27" edge="1">
          <mxGeometry width="50" height="50" relative="1" as="geometry">
            <mxPoint x="540" y="102.5" as="sourcePoint" />
            <mxPoint x="590" y="52.5" as="targetPoint" />
          </mxGeometry>
        </mxCell>
        <mxCell id="au6G4QNOyBElbajrbixK-33" value="" style="endArrow=classic;html=1;rounded=0;exitX=0.5;exitY=1;exitDx=0;exitDy=0;entryX=0.5;entryY=0;entryDx=0;entryDy=0;" parent="1" source="au6G4QNOyBElbajrbixK-27" target="au6G4QNOyBElbajrbixK-28" edge="1">
          <mxGeometry width="50" height="50" relative="1" as="geometry">
            <mxPoint x="540" y="192.5" as="sourcePoint" />
            <mxPoint x="590" y="142.5" as="targetPoint" />
          </mxGeometry>
        </mxCell>
        <mxCell id="au6G4QNOyBElbajrbixK-34" value="" style="endArrow=classic;html=1;rounded=0;exitX=1;exitY=0.5;exitDx=0;exitDy=0;entryX=0;entryY=0.5;entryDx=0;entryDy=0;" parent="1" source="au6G4QNOyBElbajrbixK-28" target="au6G4QNOyBElbajrbixK-31" edge="1">
          <mxGeometry width="50" height="50" relative="1" as="geometry">
            <mxPoint x="530" y="302.5" as="sourcePoint" />
            <mxPoint x="580" y="272.5" as="targetPoint" />
          </mxGeometry>
        </mxCell>
        <mxCell id="au6G4QNOyBElbajrbixK-35" value="" style="endArrow=classic;html=1;rounded=0;exitX=1;exitY=0.5;exitDx=0;exitDy=0;entryX=0;entryY=0.5;entryDx=0;entryDy=0;" parent="1" source="au6G4QNOyBElbajrbixK-27" target="au6G4QNOyBElbajrbixK-29" edge="1">
          <mxGeometry width="50" height="50" relative="1" as="geometry">
            <mxPoint x="620" y="102.5" as="sourcePoint" />
            <mxPoint x="670" y="52.5" as="targetPoint" />
          </mxGeometry>
        </mxCell>
        <mxCell id="au6G4QNOyBElbajrbixK-36" value="" style="endArrow=classic;startArrow=classic;html=1;rounded=0;entryX=0.5;entryY=1;entryDx=0;entryDy=0;exitX=0.514;exitY=-0.008;exitDx=0;exitDy=0;exitPerimeter=0;" parent="1" source="au6G4QNOyBElbajrbixK-31" target="au6G4QNOyBElbajrbixK-29" edge="1">
          <mxGeometry width="50" height="50" relative="1" as="geometry">
            <mxPoint x="650" y="208.5" as="sourcePoint" />
            <mxPoint x="640" y="282.5" as="targetPoint" />
          </mxGeometry>
        </mxCell>
        <mxCell id="au6G4QNOyBElbajrbixK-37" value="" style="endArrow=classic;html=1;rounded=0;exitX=0.994;exitY=0.054;exitDx=0;exitDy=0;exitPerimeter=0;entryX=0.026;entryY=0.958;entryDx=0;entryDy=0;entryPerimeter=0;" parent="1" source="au6G4QNOyBElbajrbixK-28" target="au6G4QNOyBElbajrbixK-29" edge="1">
          <mxGeometry width="50" height="50" relative="1" as="geometry">
            <mxPoint x="580" y="202.5" as="sourcePoint" />
            <mxPoint x="630" y="152.5" as="targetPoint" />
          </mxGeometry>
        </mxCell>
        <mxCell id="au6G4QNOyBElbajrbixK-38" value="UI" style="rounded=1;whiteSpace=wrap;html=1;" parent="1" vertex="1">
          <mxGeometry x="509.5" y="17.5" width="61" height="15" as="geometry" />
        </mxCell>
        <mxCell id="au6G4QNOyBElbajrbixK-39" value="REST API" style="rounded=1;whiteSpace=wrap;html=1;" parent="1" vertex="1">
          <mxGeometry x="509.5" y="37.5" width="61" height="17.5" as="geometry" />
        </mxCell>
        <mxCell id="au6G4QNOyBElbajrbixK-40" value="" style="endArrow=classic;html=1;rounded=0;entryX=0.5;entryY=0;entryDx=0;entryDy=0;" parent="1" target="au6G4QNOyBElbajrbixK-41" edge="1">
          <mxGeometry width="50" height="50" relative="1" as="geometry">
            <mxPoint x="540" y="55" as="sourcePoint" />
            <mxPoint x="540" y="85" as="targetPoint" />
          </mxGeometry>
        </mxCell>
        <mxCell id="au6G4QNOyBElbajrbixK-41" value="Reverse Proxy" style="rounded=1;whiteSpace=wrap;html=1;" parent="1" vertex="1">
          <mxGeometry x="500" y="75" width="80" height="40" as="geometry" />
        </mxCell>
        <mxCell id="dBb8zA1ts6FRftBYWKNx-1" value="Central Control Plane (CCP)" style="rounded=1;whiteSpace=wrap;html=1;" parent="1" vertex="1">
          <mxGeometry x="75" y="320" width="120" height="50" as="geometry" />
        </mxCell>
        <mxCell id="dBb8zA1ts6FRftBYWKNx-2" value="Local Control Plane (LCP)" style="rounded=1;whiteSpace=wrap;html=1;" parent="1" vertex="1">
          <mxGeometry x="75" y="410" width="120" height="50" as="geometry" />
        </mxCell>
        <mxCell id="dBb8zA1ts6FRftBYWKNx-3" value="NSX-T Manager Node 1" style="text;html=1;align=center;verticalAlign=middle;whiteSpace=wrap;rounded=0;fontStyle=1" parent="1" vertex="1">
          <mxGeometry x="50" y="290" width="170" height="30" as="geometry" />
        </mxCell>
        <mxCell id="dBb8zA1ts6FRftBYWKNx-4" value="Edge Transport Node 1&lt;div&gt;ESXi/KVM Host&lt;/div&gt;" style="text;html=1;align=center;verticalAlign=middle;whiteSpace=wrap;rounded=0;fontStyle=1" parent="1" vertex="1">
          <mxGeometry x="54" y="460" width="170" height="30" as="geometry" />
        </mxCell>
        <mxCell id="dBb8zA1ts6FRftBYWKNx-5" value="" style="rounded=0;whiteSpace=wrap;html=1;fillColor=none;strokeColor=#6c8ebf;" parent="1" vertex="1">
          <mxGeometry x="65" y="290" width="140" height="90" as="geometry" />
        </mxCell>
        <mxCell id="dBb8zA1ts6FRftBYWKNx-6" value="" style="endArrow=classic;html=1;rounded=0;exitX=0.507;exitY=1;exitDx=0;exitDy=0;entryX=0.514;entryY=-0.015;entryDx=0;entryDy=0;entryPerimeter=0;exitPerimeter=0;" parent="1" source="dBb8zA1ts6FRftBYWKNx-1" target="dBb8zA1ts6FRftBYWKNx-2" edge="1">
          <mxGeometry width="50" height="50" relative="1" as="geometry">
            <mxPoint x="220" y="370" as="sourcePoint" />
            <mxPoint x="270" y="320" as="targetPoint" />
          </mxGeometry>
        </mxCell>
        <mxCell id="dBb8zA1ts6FRftBYWKNx-7" value="" style="rounded=0;whiteSpace=wrap;html=1;fillColor=none;strokeColor=#6c8ebf;" parent="1" vertex="1">
          <mxGeometry x="65" y="400" width="140" height="90" as="geometry" />
        </mxCell>
        <mxCell id="dBb8zA1ts6FRftBYWKNx-8" value="Central Control Plane (CCP)" style="rounded=1;whiteSpace=wrap;html=1;" parent="1" vertex="1">
          <mxGeometry x="255.5" y="320" width="120" height="50" as="geometry" />
        </mxCell>
        <mxCell id="dBb8zA1ts6FRftBYWKNx-9" value="Local Control Plane (LCP)" style="rounded=1;whiteSpace=wrap;html=1;" parent="1" vertex="1">
          <mxGeometry x="255.5" y="410" width="120" height="50" as="geometry" />
        </mxCell>
        <mxCell id="dBb8zA1ts6FRftBYWKNx-10" value="NSX-T Manager Node 2" style="text;html=1;align=center;verticalAlign=middle;whiteSpace=wrap;rounded=0;fontStyle=1" parent="1" vertex="1">
          <mxGeometry x="230.5" y="290" width="170" height="30" as="geometry" />
        </mxCell>
        <mxCell id="dBb8zA1ts6FRftBYWKNx-11" value="Edge Transport Node 2&lt;div&gt;ESXi/KVM Host&lt;/div&gt;" style="text;html=1;align=center;verticalAlign=middle;whiteSpace=wrap;rounded=0;fontStyle=1" parent="1" vertex="1">
          <mxGeometry x="234.5" y="460" width="170" height="30" as="geometry" />
        </mxCell>
        <mxCell id="dBb8zA1ts6FRftBYWKNx-12" value="" style="rounded=0;whiteSpace=wrap;html=1;fillColor=none;strokeColor=#6c8ebf;" parent="1" vertex="1">
          <mxGeometry x="249.5" y="290" width="140" height="90" as="geometry" />
        </mxCell>
        <mxCell id="dBb8zA1ts6FRftBYWKNx-14" value="" style="rounded=0;whiteSpace=wrap;html=1;fillColor=none;strokeColor=#6c8ebf;" parent="1" vertex="1">
          <mxGeometry x="250" y="400" width="140" height="90" as="geometry" />
        </mxCell>
        <mxCell id="dBb8zA1ts6FRftBYWKNx-15" value="Central Control Plane (CCP)" style="rounded=1;whiteSpace=wrap;html=1;" parent="1" vertex="1">
          <mxGeometry x="449.5" y="320" width="120" height="50" as="geometry" />
        </mxCell>
        <mxCell id="dBb8zA1ts6FRftBYWKNx-16" value="Local Control Plane (LCP)" style="rounded=1;whiteSpace=wrap;html=1;" parent="1" vertex="1">
          <mxGeometry x="449.5" y="410" width="120" height="50" as="geometry" />
        </mxCell>
        <mxCell id="dBb8zA1ts6FRftBYWKNx-17" value="NSX-T Manager Node 3" style="text;html=1;align=center;verticalAlign=middle;whiteSpace=wrap;rounded=0;fontStyle=1" parent="1" vertex="1">
          <mxGeometry x="424.5" y="290" width="170" height="30" as="geometry" />
        </mxCell>
        <mxCell id="dBb8zA1ts6FRftBYWKNx-18" value="Edge Transport Node 3&lt;div&gt;ESXi/KVM Host&lt;/div&gt;" style="text;html=1;align=center;verticalAlign=middle;whiteSpace=wrap;rounded=0;fontStyle=1" parent="1" vertex="1">
          <mxGeometry x="428.5" y="460" width="170" height="30" as="geometry" />
        </mxCell>
        <mxCell id="dBb8zA1ts6FRftBYWKNx-19" value="" style="rounded=0;whiteSpace=wrap;html=1;fillColor=none;strokeColor=#6c8ebf;" parent="1" vertex="1">
          <mxGeometry x="439.5" y="290" width="140" height="90" as="geometry" />
        </mxCell>
        <mxCell id="dBb8zA1ts6FRftBYWKNx-21" value="" style="rounded=0;whiteSpace=wrap;html=1;fillColor=none;strokeColor=#6c8ebf;" parent="1" vertex="1">
          <mxGeometry x="439.5" y="400" width="140" height="90" as="geometry" />
        </mxCell>
        <mxCell id="dBb8zA1ts6FRftBYWKNx-22" value="" style="endArrow=classic;html=1;rounded=0;entryX=0.493;entryY=1.002;entryDx=0;entryDy=0;entryPerimeter=0;" parent="1" target="dBb8zA1ts6FRftBYWKNx-8" edge="1">
          <mxGeometry width="50" height="50" relative="1" as="geometry">
            <mxPoint x="315" y="410" as="sourcePoint" />
            <mxPoint x="365" y="360" as="targetPoint" />
          </mxGeometry>
        </mxCell>
        <mxCell id="dBb8zA1ts6FRftBYWKNx-23" value="" style="endArrow=classic;html=1;rounded=0;entryX=0.55;entryY=-0.009;entryDx=0;entryDy=0;entryPerimeter=0;" parent="1" target="dBb8zA1ts6FRftBYWKNx-16" edge="1">
          <mxGeometry width="50" height="50" relative="1" as="geometry">
            <mxPoint x="515.5" y="370" as="sourcePoint" />
            <mxPoint x="515.5" y="400" as="targetPoint" />
          </mxGeometry>
        </mxCell>
        <mxCell id="dBb8zA1ts6FRftBYWKNx-24" value="" style="endArrow=classic;html=1;rounded=0;entryX=-0.006;entryY=0.594;entryDx=0;entryDy=0;exitX=1.007;exitY=0.567;exitDx=0;exitDy=0;exitPerimeter=0;entryPerimeter=0;" parent="1" source="dBb8zA1ts6FRftBYWKNx-8" target="dBb8zA1ts6FRftBYWKNx-15" edge="1">
          <mxGeometry width="50" height="50" relative="1" as="geometry">
            <mxPoint x="385" y="340" as="sourcePoint" />
            <mxPoint x="435" y="290" as="targetPoint" />
          </mxGeometry>
        </mxCell>
        <mxCell id="dBb8zA1ts6FRftBYWKNx-25" value="" style="endArrow=classic;html=1;rounded=0;entryX=1.012;entryY=0.62;entryDx=0;entryDy=0;entryPerimeter=0;" parent="1" target="dBb8zA1ts6FRftBYWKNx-1" edge="1">
          <mxGeometry width="50" height="50" relative="1" as="geometry">
            <mxPoint x="255" y="350" as="sourcePoint" />
            <mxPoint x="215" y="360" as="targetPoint" />
          </mxGeometry>
        </mxCell>
        <mxCell id="-Hk7LWsCIsXt9qf4wgCN-1" value="Policy" style="rounded=1;whiteSpace=wrap;html=1;" vertex="1" parent="1">
          <mxGeometry x="69.5" y="640" width="80" height="40" as="geometry" />
        </mxCell>
        <mxCell id="-Hk7LWsCIsXt9qf4wgCN-2" value="Manager" style="rounded=1;whiteSpace=wrap;html=1;" vertex="1" parent="1">
          <mxGeometry x="69.5" y="712.5" width="80" height="40" as="geometry" />
        </mxCell>
        <mxCell id="-Hk7LWsCIsXt9qf4wgCN-4" value="" style="edgeStyle=orthogonalEdgeStyle;rounded=0;orthogonalLoop=1;jettySize=auto;html=1;" edge="1" parent="1" target="-Hk7LWsCIsXt9qf4wgCN-2">
          <mxGeometry relative="1" as="geometry">
            <mxPoint x="179.5" y="732.5238095238096" as="sourcePoint" />
          </mxGeometry>
        </mxCell>
        <mxCell id="-Hk7LWsCIsXt9qf4wgCN-6" value="" style="endArrow=classic;html=1;rounded=0;entryX=0.5;entryY=0;entryDx=0;entryDy=0;exitX=0.5;exitY=1;exitDx=0;exitDy=0;" edge="1" parent="1" source="-Hk7LWsCIsXt9qf4wgCN-15" target="-Hk7LWsCIsXt9qf4wgCN-1">
          <mxGeometry width="50" height="50" relative="1" as="geometry">
            <mxPoint x="109.5" y="605" as="sourcePoint" />
            <mxPoint x="159.5" y="555" as="targetPoint" />
          </mxGeometry>
        </mxCell>
        <mxCell id="-Hk7LWsCIsXt9qf4wgCN-7" value="" style="endArrow=classic;html=1;rounded=0;exitX=0.5;exitY=1;exitDx=0;exitDy=0;entryX=0.5;entryY=0;entryDx=0;entryDy=0;" edge="1" parent="1" source="-Hk7LWsCIsXt9qf4wgCN-1" target="-Hk7LWsCIsXt9qf4wgCN-2">
          <mxGeometry width="50" height="50" relative="1" as="geometry">
            <mxPoint x="109.5" y="695" as="sourcePoint" />
            <mxPoint x="159.5" y="645" as="targetPoint" />
          </mxGeometry>
        </mxCell>
        <mxCell id="-Hk7LWsCIsXt9qf4wgCN-8" value="" style="endArrow=classic;html=1;rounded=0;exitX=1;exitY=0.5;exitDx=0;exitDy=0;entryX=0;entryY=0.5;entryDx=0;entryDy=0;" edge="1" parent="1" source="-Hk7LWsCIsXt9qf4wgCN-2">
          <mxGeometry width="50" height="50" relative="1" as="geometry">
            <mxPoint x="99.5" y="805" as="sourcePoint" />
            <mxPoint x="179.5" y="732.5" as="targetPoint" />
          </mxGeometry>
        </mxCell>
        <mxCell id="-Hk7LWsCIsXt9qf4wgCN-12" value="UI" style="rounded=1;whiteSpace=wrap;html=1;" vertex="1" parent="1">
          <mxGeometry x="79" y="520" width="61" height="15" as="geometry" />
        </mxCell>
        <mxCell id="-Hk7LWsCIsXt9qf4wgCN-13" value="REST API" style="rounded=1;whiteSpace=wrap;html=1;" vertex="1" parent="1">
          <mxGeometry x="79" y="540" width="61" height="17.5" as="geometry" />
        </mxCell>
        <mxCell id="-Hk7LWsCIsXt9qf4wgCN-14" value="" style="endArrow=classic;html=1;rounded=0;entryX=0.5;entryY=0;entryDx=0;entryDy=0;" edge="1" parent="1" target="-Hk7LWsCIsXt9qf4wgCN-15">
          <mxGeometry width="50" height="50" relative="1" as="geometry">
            <mxPoint x="109.5" y="557.5" as="sourcePoint" />
            <mxPoint x="109.5" y="587.5" as="targetPoint" />
          </mxGeometry>
        </mxCell>
        <mxCell id="-Hk7LWsCIsXt9qf4wgCN-15" value="Reverse Proxy" style="rounded=1;whiteSpace=wrap;html=1;" vertex="1" parent="1">
          <mxGeometry x="69.5" y="577.5" width="80" height="40" as="geometry" />
        </mxCell>
        <mxCell id="-Hk7LWsCIsXt9qf4wgCN-16" value="CCP" style="rounded=1;whiteSpace=wrap;html=1;" vertex="1" parent="1">
          <mxGeometry x="69.5" y="780" width="80" height="40" as="geometry" />
        </mxCell>
        <mxCell id="-Hk7LWsCIsXt9qf4wgCN-17" value="Applicance Proxy Hub (APH)" style="rounded=1;whiteSpace=wrap;html=1;rotation=-90;" vertex="1" parent="1">
          <mxGeometry x="132" y="677.5" width="130" height="35" as="geometry" />
        </mxCell>
        <mxCell id="-Hk7LWsCIsXt9qf4wgCN-20" value="" style="endArrow=classic;startArrow=classic;html=1;rounded=0;entryX=0.777;entryY=-0.013;entryDx=0;entryDy=0;entryPerimeter=0;exitX=0.988;exitY=0.474;exitDx=0;exitDy=0;exitPerimeter=0;" edge="1" parent="1" source="-Hk7LWsCIsXt9qf4wgCN-1" target="-Hk7LWsCIsXt9qf4wgCN-17">
          <mxGeometry width="50" height="50" relative="1" as="geometry">
            <mxPoint x="149.5" y="660" as="sourcePoint" />
            <mxPoint x="199.5" y="610" as="targetPoint" />
          </mxGeometry>
        </mxCell>
        <mxCell id="-Hk7LWsCIsXt9qf4wgCN-21" value="Transport Node Proxy (TnProxy)" style="rounded=1;whiteSpace=wrap;html=1;rotation=-90;" vertex="1" parent="1">
          <mxGeometry x="204.5" y="677.5" width="130" height="35" as="geometry" />
        </mxCell>
        <mxCell id="-Hk7LWsCIsXt9qf4wgCN-22" value="" style="endArrow=classic;startArrow=classic;html=1;rounded=0;exitX=0.77;exitY=0.995;exitDx=0;exitDy=0;exitPerimeter=0;entryX=0.773;entryY=-0.022;entryDx=0;entryDy=0;entryPerimeter=0;" edge="1" parent="1" source="-Hk7LWsCIsXt9qf4wgCN-17" target="-Hk7LWsCIsXt9qf4wgCN-21">
          <mxGeometry width="50" height="50" relative="1" as="geometry">
            <mxPoint x="219.5" y="660" as="sourcePoint" />
            <mxPoint x="269.5" y="610" as="targetPoint" />
          </mxGeometry>
        </mxCell>
        <mxCell id="-Hk7LWsCIsXt9qf4wgCN-23" value="" style="endArrow=classic;startArrow=classic;html=1;rounded=0;exitX=0.202;exitY=1.011;exitDx=0;exitDy=0;exitPerimeter=0;entryX=0.207;entryY=0.022;entryDx=0;entryDy=0;entryPerimeter=0;" edge="1" parent="1" source="-Hk7LWsCIsXt9qf4wgCN-17" target="-Hk7LWsCIsXt9qf4wgCN-21">
          <mxGeometry width="50" height="50" relative="1" as="geometry">
            <mxPoint x="219.5" y="750" as="sourcePoint" />
            <mxPoint x="269.5" y="700" as="targetPoint" />
          </mxGeometry>
        </mxCell>
        <mxCell id="-Hk7LWsCIsXt9qf4wgCN-24" value="" style="rounded=0;whiteSpace=wrap;html=1;fillColor=none;strokeColor=#6c8ebf;" vertex="1" parent="1">
          <mxGeometry x="39.5" y="563.75" width="190" height="266.25" as="geometry" />
        </mxCell>
        <mxCell id="-Hk7LWsCIsXt9qf4wgCN-25" value="" style="rounded=0;whiteSpace=wrap;html=1;fillColor=none;strokeColor=#82b366;" vertex="1" parent="1">
          <mxGeometry x="239.5" y="563.75" width="90" height="266.25" as="geometry" />
        </mxCell>
        <mxCell id="-Hk7LWsCIsXt9qf4wgCN-26" value="" style="endArrow=classic;html=1;rounded=0;exitX=0.5;exitY=1;exitDx=0;exitDy=0;entryX=0.482;entryY=-0.005;entryDx=0;entryDy=0;entryPerimeter=0;" edge="1" parent="1" source="-Hk7LWsCIsXt9qf4wgCN-2" target="-Hk7LWsCIsXt9qf4wgCN-16">
          <mxGeometry width="50" height="50" relative="1" as="geometry">
            <mxPoint x="119.5" y="770" as="sourcePoint" />
            <mxPoint x="169.5" y="720" as="targetPoint" />
          </mxGeometry>
        </mxCell>
        <mxCell id="-Hk7LWsCIsXt9qf4wgCN-27" value="NSX-T Manager Node" style="text;html=1;align=center;verticalAlign=middle;whiteSpace=wrap;rounded=0;fontStyle=1;rotation=-90;" vertex="1" parent="1">
          <mxGeometry x="-10.5" y="647.5" width="140" height="30" as="geometry" />
        </mxCell>
        <mxCell id="-Hk7LWsCIsXt9qf4wgCN-28" value="NSX-T Transport Node 1" style="text;html=1;align=center;verticalAlign=middle;whiteSpace=wrap;rounded=0;fontStyle=1;rotation=-90;" vertex="1" parent="1">
          <mxGeometry x="240" y="682.5" width="145" height="30" as="geometry" />
        </mxCell>
        <mxCell id="QA0I4JK5bN0O6TZKf-lb-21" value="" style="rounded=1;whiteSpace=wrap;html=1;" vertex="1" parent="1">
          <mxGeometry x="384.5" y="595" width="132" height="130" as="geometry" />
        </mxCell>
        <mxCell id="QA0I4JK5bN0O6TZKf-lb-22" value="NSX-Proxy" style="rounded=0;whiteSpace=wrap;html=1;fontSize=8;" vertex="1" parent="1">
          <mxGeometry x="426.5" y="625" width="47" height="20" as="geometry" />
        </mxCell>
        <mxCell id="QA0I4JK5bN0O6TZKf-lb-23" value="NSX-T vSwitch" style="rounded=0;whiteSpace=wrap;html=1;fontSize=8;" vertex="1" parent="1">
          <mxGeometry x="402" y="675" width="37" height="20" as="geometry" />
        </mxCell>
        <mxCell id="QA0I4JK5bN0O6TZKf-lb-24" value="vSwitch" style="rounded=0;whiteSpace=wrap;html=1;fontSize=8;" vertex="1" parent="1">
          <mxGeometry x="465.5" y="675" width="30" height="20" as="geometry" />
        </mxCell>
        <mxCell id="QA0I4JK5bN0O6TZKf-lb-25" value="" style="rounded=0;whiteSpace=wrap;html=1;fillColor=none;" vertex="1" parent="1">
          <mxGeometry x="396.5" y="655" width="48" height="50" as="geometry" />
        </mxCell>
        <mxCell id="QA0I4JK5bN0O6TZKf-lb-26" value="&lt;b&gt;N-VDS&lt;/b&gt;" style="text;html=1;align=center;verticalAlign=middle;whiteSpace=wrap;rounded=0;" vertex="1" parent="1">
          <mxGeometry x="390.5" y="650" width="60" height="30" as="geometry" />
        </mxCell>
        <mxCell id="QA0I4JK5bN0O6TZKf-lb-27" value="" style="rounded=0;whiteSpace=wrap;html=1;fillColor=none;" vertex="1" parent="1">
          <mxGeometry x="456.5" y="655" width="48" height="50" as="geometry" />
        </mxCell>
        <mxCell id="QA0I4JK5bN0O6TZKf-lb-28" value="&lt;b&gt;VDS&lt;/b&gt;" style="text;html=1;align=center;verticalAlign=middle;whiteSpace=wrap;rounded=0;" vertex="1" parent="1">
          <mxGeometry x="450.5" y="650" width="60" height="30" as="geometry" />
        </mxCell>
        <mxCell id="QA0I4JK5bN0O6TZKf-lb-29" value="ESXi Host" style="text;html=1;align=center;verticalAlign=middle;whiteSpace=wrap;rounded=0;" vertex="1" parent="1">
          <mxGeometry x="420" y="595" width="60" height="30" as="geometry" />
        </mxCell>
        <mxCell id="QA0I4JK5bN0O6TZKf-lb-30" value="" style="rounded=1;whiteSpace=wrap;html=1;" vertex="1" parent="1">
          <mxGeometry x="533" y="595" width="132" height="130" as="geometry" />
        </mxCell>
        <mxCell id="QA0I4JK5bN0O6TZKf-lb-31" value="NSX-Proxy" style="rounded=0;whiteSpace=wrap;html=1;fontSize=8;" vertex="1" parent="1">
          <mxGeometry x="577" y="625" width="47" height="20" as="geometry" />
        </mxCell>
        <mxCell id="QA0I4JK5bN0O6TZKf-lb-32" value="NSX Agent" style="rounded=0;whiteSpace=wrap;html=1;fontSize=8;" vertex="1" parent="1">
          <mxGeometry x="567.5" y="675" width="63" height="10" as="geometry" />
        </mxCell>
        <mxCell id="QA0I4JK5bN0O6TZKf-lb-34" value="" style="rounded=0;whiteSpace=wrap;html=1;fillColor=none;" vertex="1" parent="1">
          <mxGeometry x="560.5" y="655" width="80" height="60" as="geometry" />
        </mxCell>
        <mxCell id="QA0I4JK5bN0O6TZKf-lb-35" value="&lt;b&gt;N-VDS&lt;/b&gt;" style="text;html=1;align=center;verticalAlign=middle;whiteSpace=wrap;rounded=0;fontSize=8;" vertex="1" parent="1">
          <mxGeometry x="570.5" y="655" width="60" height="20" as="geometry" />
        </mxCell>
        <mxCell id="QA0I4JK5bN0O6TZKf-lb-38" value="KVM Host" style="text;html=1;align=center;verticalAlign=middle;whiteSpace=wrap;rounded=0;" vertex="1" parent="1">
          <mxGeometry x="570.5" y="595" width="60" height="30" as="geometry" />
        </mxCell>
        <mxCell id="QA0I4JK5bN0O6TZKf-lb-39" value="Open vSwitch" style="rounded=0;whiteSpace=wrap;html=1;fontSize=8;" vertex="1" parent="1">
          <mxGeometry x="567.5" y="695" width="63" height="10" as="geometry" />
        </mxCell>
        <mxCell id="QA0I4JK5bN0O6TZKf-lb-40" value="" style="rounded=0;whiteSpace=wrap;html=1;fillColor=none;strokeColor=#82b366;" vertex="1" parent="1">
          <mxGeometry x="375.5" y="557.5" width="301" height="177.5" as="geometry" />
        </mxCell>
        <mxCell id="QA0I4JK5bN0O6TZKf-lb-41" value="Host Transport Nodes" style="text;html=1;align=center;verticalAlign=middle;whiteSpace=wrap;rounded=0;" vertex="1" parent="1">
          <mxGeometry x="466.5" y="557.5" width="120" height="30" as="geometry" />
        </mxCell>
      </root>
    </mxGraphModel>
  </diagram>
</mxfile>
